<?xml version="1.0" encoding="UTF-8"?>
<svg width="675.94" height="958.12" version="1.1" viewBox="0 0 675.9375 958.125" xmlns="http://www.w3.org/2000/svg">
 <path d="m583.08 957.76c-0.55467-0.55463-21.151-4.2647-25.003-4.5038-1.432-0.0891-3.0256-0.45497-3.5412-0.81346-0.51563-0.3585-3.3205-0.93975-6.2331-1.2918-3.4346-0.41512-5.8743-1.2794-6.9422-2.4594-1.7481-1.9316-5.1059-2.4836-5.1059-0.83944 0 1.4215-6.6342 0.21872-13.594-2.4647-1.0312-0.39759-4.1953-0.83878-7.0312-0.98044-8.1736-0.40809-11.386-0.92775-12.044-1.9485-1.8327-2.8418-10.19-5.2491-9.1912-2.6476 0.88517 2.3067-0.71898 2.4056-7.6896 0.474-3.6749-1.0184-10.377-2.2467-14.894-2.7295-4.5169-0.48286-10.533-1.2955-13.369-1.8059-5.9202-1.0654-29.597-2.9548-44.062-3.5162-13.215-0.51285-35.667-2.124-37.461-2.6882-0.79503-0.25003-4.8205-0.0375-8.9455 0.47238-4.125 0.50984-9.102 1.1232-11.06 1.363-1.958 0.23981-3.9649 0.68623-4.4598 0.99205-0.49484 0.30583-1.1528-0.1035-1.4621-0.90962-0.65975-1.7192-9.2294-2.1076-10.245-0.46426-0.3404 0.55078-1.1576 0.79468-1.8161 0.54202-0.65845-0.25268-1.5926-0.0639-2.0759 0.4193-0.5466 0.5466-2.0026 0.31806-3.8523-0.60472-1.6355-0.81588-3.334-1.2607-3.7746-0.98839-0.44054 0.27226-7.0904 0.76029-14.778 1.0845-35.144 1.4822-43.428 2.1702-47.098 3.9114-2.5614 1.2154-3.732 1.2992-6.117 0.43784-2.9323-1.0591-6.6648-0.66359-8.704 0.92235-0.5869 0.45646-2.6963 0.58087-4.6875 0.27649-2.3628-0.3612-5.4283 0.0526-8.825 1.1912-3.8123 1.2778-6.0372 1.5288-8.3169 0.93806-2.1843-0.56606-4.1339-0.39778-6.5385 0.56437-1.8844 0.75403-5.6636 1.3882-8.3981 1.4094-2.7345 0.0216-5.4657 0.43556-6.0694 0.92091-1.791 1.4398-7.1913 2.321-7.1913 1.1734 0-1.5325-4.9413-1.2121-9.0261 0.58519-2.1808 0.95962-6.3836 1.6571-10.527 1.7471-4.735 0.10294-7.1493 0.55735-7.7021 1.4497-0.60096 0.97013-2.6871 1.2322-8.2249 1.0334-6.1852-0.2221-7.5183-9e-3 -8.0125 1.2784-0.49319 1.2853-1.4408 1.439-5.6383 0.91453-3.3887-0.42337-6.6943-0.17025-10.067 0.7711-2.7616 0.77081-12.193 2.0903-20.959 2.9321-8.7656 0.84188-17.506 1.9362-19.424 2.4318-5.406 1.3974-21.273 0.89269-25.107-0.79865-5.8841-2.5952-12.616-4.8573-14.548-4.8886-1.0405-0.0169-3.3715-1.036-5.18-2.265s-3.9546-2.3891-4.769-2.5781c-4.8524-1.1263-11.42-12.147-12.165-20.411-0.39908-4.4315-1.1961-12.276-1.7713-17.432-1.4474-12.977-2.5948-29.285-3.7268-52.969-0.52986-11.086-1.3846-26.273-1.8994-33.75-1.6279-23.643-4.9472-91.159-7.0517-143.44-0.23871-5.9297-0.64849-13.102-0.91062-15.938-0.65808-7.1195-2.2479-36.279-2.8113-51.562-0.64745-17.563-1.3787-32.654-2.4076-49.688-5.2651-87.162-7.8406-136.38-9.7625-186.56-0.76031-19.852-1.6047-39.047-1.8764-42.656-0.60257-8.004-1.0786-15.578-2.3567-37.5-0.54114-9.2812-1.3776-19.617-1.8588-22.969-0.4812-3.3516-1.1244-10.945-1.4294-16.875-0.30498-5.9297-0.95994-15.844-1.4555-22.031-1.4504-18.111-1.3503-22.218 0.6269-25.717 0.96748-1.7121 2.3256-4.1484 3.0181-5.4138 1.8077-3.3036 6.6089-7.678 10.751-9.7956 1.9651-1.0046 5.7619-3.1758 8.4375-4.8251 8.0328-4.9515 21.266-10.557 34.396-14.569 3.3516-1.0242 8.8359-2.7003 12.188-3.7246 3.3516-1.0244 13.477-4.4091 22.5-7.5217 9.0234-3.1126 21.469-7.2029 27.656-9.0895 6.1875-1.8866 13.175-4.2114 15.528-5.1661 2.3532-0.95472 10.791-3.4399 18.75-5.5226 24.739-6.4735 32.218-8.5344 34.159-9.4129 1.0312-0.46676 4.8281-1.448 8.4375-2.1804 3.6094-0.73246 14.578-3.4456 24.375-6.0293 20.934-5.5207 29.548-7.6911 34.688-8.7393 2.0625-0.42068 7.125-1.6452 11.25-2.7212s8.5145-2.1782 9.7544-2.4495c6.9416-1.5184 7.4583-2.9326 7.149-19.568l-0.26029-13.999-5.0403-2.6473c-7.7309-4.0605-10.004-7.2125-9.5223-13.205 0.86388-10.748 4.91-13.199 14.794-8.9637 2.2654 0.97074 9.2434 2.424 16.875 3.5145 3.0938 0.44207 8.3672 1.4949 11.719 2.3395 4.1858 1.0549 11.524 1.6462 23.438 1.8885 20.699 0.42094 19.688 0.35168 19.688 1.3478 0 1.1157-16.523 2.5194-27.035 2.2966-7.8925-0.16725-8.693-0.02895-8.1385 1.4062 0.3382 0.87546 1.1012 3.1444 1.6957 5.042 0.90829 2.8997 1.6086 3.5504 4.3885 4.0775 10.704 2.0299 22.756 2.9234 26.182 1.941 2.0659-0.59249 4.0056-0.55911 5.7489 0.09892 6.2363 2.3539 22.471-1.0046 22.471-4.6487 0-1.1872 0.73828-2.8208 1.6406-3.6302 0.90235-0.80936 2.1066-2.2713 2.6762-3.2488 0.89141-1.5298 1.2503-1.599 2.5781-0.497 2.4132 2.0027 1.8385 3.7514-1.9731 6.0041-4.8563 2.8701-1.0822 3.4954 4.3551 0.72152 8.4254-4.2983 12.272-9.5258 9.0043-12.238-0.77344-0.6419-1.4062-1.7934-1.4062-2.5588 0-0.96644-0.50137-1.1784-1.6406-0.69362-2.9085 1.2377-13.717 3.1841-17.578 3.1656l-3.75-0.01793 4.2188-1.7702c2.3203-0.97363 5.1889-1.7938 6.3747-1.8226 1.656-0.04024 6.8327-2.0591 8.3512-3.2568 0.80794-0.63729-2.7376-17.745-4.2981-20.739-2.2203-4.2598-7.1145-9.1724-13.006-13.055-2.1914-1.4442-3.9844-2.9984-3.9844-3.4539 0-1.2202-5.3128-3.2907-11.719-4.5669-3.0938-0.61635-6.8906-1.5309-8.4375-2.0324-21.151-6.8567-55.969 1.124-63.948 14.657-2.4863 4.2175-5.2585 13.817-5.5645 19.269-0.13023 2.3203-0.25813 4.5352-0.28422 4.9219-0.0261 0.38672-1.1021 0.70312-2.3912 0.70312-3.1636 0-3.1855-4.8635-0.0647-14.424 4.8841-14.962 13.46-24.598 23.971-26.935 1.8047-0.4012 6.0234-1.4484 9.375-2.3271 14.725-3.8605 45.285-2.1586 55.218 3.075 2.2682 1.1951 4.9217 2.1729 5.8967 2.1729 2.7722 0 10.29 4.2732 15.38 8.7426 4.7683 4.1864 6.9643 12.057 7.3042 26.179 0.11595 4.8169 1.9419 6.0472 4.0248 2.7119 0.67454-1.0801 3.2821-2.2281 6.868-3.0236 3.4185-0.7584 6.1229-1.922 6.6183-2.8477 2.4224-4.5262 9.3857-3.8428 16.548 1.6242 3.2668 2.4936 4.5919 2.9647 7.1652 2.5471 1.8055-0.29299 4.1152 0.01196 5.3951 0.71232 1.2309 0.67356 4.9801 1.2612 8.3317 1.3059 4.2663 0.05686 7.3901 0.71031 10.417 2.179 2.3776 1.1538 4.9762 1.847 5.7748 1.5406 0.79854-0.30643 2.7767 0.12793 4.3959 0.96524s3.6861 1.2868 4.5931 0.99897c1.1785-0.37404 2.5356 0.65973 4.7554 3.6224 3.2111 4.2856 4.9869 5.2073 10.076 5.2291 2.1072 0.0091 3.9992 0.9739 6.4593 3.2941 2.8724 2.709 4.187 3.2812 7.5379 3.2812 6.284 0 17.241 7.3152 17.241 11.51 0 0.49268 0.84333 0.67525 1.8741 0.40571 1.0308-0.26954 2.1103-0.10781 2.3991 0.35941 0.28876 0.46722 1.2384 0.85527 2.1103 0.86235 0.87191 7e-3 4.0515 2.5256 7.0657 5.5968s7.1244 6.3093 9.1337 7.1958c2.0093 0.88651 3.8743 2.3082 4.1445 3.1593 0.27013 0.85113 1.6443 2.0813 3.0538 2.7338 1.4094 0.65246 3.8722 1.808 5.4728 2.5679 3.1846 1.5119 9.2595 8.2692 10.597 11.788 0.54756 1.4402 2.1103 2.6027 4.4495 3.3097 4.4454 1.3436 8.7617 7.5598 8.7617 12.618 0 1.9659 0.53045 3.5206 1.3022 3.8167 2.4914 0.95605 4.7756 8.8652 3.544 12.271-2.2506 6.2241-1.0618 7.615 9.2275 10.795 3.3454 1.034 10.723 3.8258 16.395 6.204 5.6719 2.3782 11.578 4.7862 13.125 5.3512 1.5469 0.56499 4.0781 1.7287 5.625 2.5859 2.5316 1.403 6.8806 2.9408 9.375 3.315 4.8339 0.72513 21.752 13.204 25.753 18.995 1.3045 1.8882 3.11 4.258 4.0124 5.2662 1.1921 1.332 1.6406 3.4356 1.6406 7.6948 0 3.2239 0.40744 6.1135 0.90542 6.4212 0.88646 0.54787 0.7002 27.944-0.41445 60.957-1.4319 42.411-2.433 68.024-2.8398 72.656-0.50689 5.7723-2.8737 44.51-4.2151 68.988-0.48281 8.8107-1.0697 16.615-1.3042 17.344-0.23448 0.72841-0.69155 8.203-1.0157 16.61-0.32418 8.4072-0.75986 15.79-0.96816 16.406-0.20831 0.61629-0.60948 8.2924-0.89149 17.058-0.94213 29.284-3.4271 72.882-4.8626 85.312-0.29773 2.5781-0.65683 8.0625-0.79801 12.188-0.23537 6.8775-0.90388 17.111-1.8986 29.062-0.21457 2.5781-0.81767 14.18-1.3402 25.781-0.52256 11.602-1.164 23.625-1.4255 26.719s-0.71422 9-1.0061 13.125c-0.29189 4.125-0.7091 9.1875-0.92716 11.25-0.66597 6.2989-1.4328 19.082-1.8839 31.406-0.23595 6.4453-0.8054 14.25-1.2654 17.344s-0.89889 10.055-0.97523 15.469c-0.0763 5.4141-0.33983 13.43-0.58553 17.812s-0.85838 17.461-1.3615 29.062c-1.4551 33.554-2.684 57.015-4.1739 79.688-0.76241 11.602-1.663 26.789-2.0012 33.75-0.98239 20.216-11.236 43.125-19.303 43.125-1.0785 0-2.4337 0.64669-3.0117 1.437-1.9755 2.7017-31.203 6.0472-33.424 3.8259zm-499.23-19.091c-0.17105-7.0898-0.73894-22.594-1.262-34.453-0.52302-11.859-1.1948-28.066-1.4928-36.014-0.29799-7.9484-0.70382-14.714-0.90183-15.034-0.71144-1.1511-1.4308-17.869-1.9181-44.577-0.27282-14.953-0.68406-29.297-0.91386-31.875-1.4238-15.974-1.5189-36.094-0.17055-36.094 1.962 0 3.438 4.9406 3.4729 11.624 0.01642 3.1457 0.66024 11.204 1.4307 17.907 0.77049 6.7031 1.6172 20.836 1.8816 31.406s1.0884 30.82 1.8312 45 1.5871 31.142 1.8763 37.694c0.28921 6.5521 0.73965 13.513 1.001 15.469 0.53618 4.0126 1.143 23.361 1.2518 39.913 0.08187 12.456 0.1381 12.549 7.0067 11.518l4.0986-0.61462-0.30533-5.3495c-0.16794-2.9422-0.55287-12.732-0.85539-21.756-0.30253-9.0234-0.98397-24.844-1.5143-35.156-2.6938-52.381-4.2676-114.84-2.8936-114.84 2.1592 0 3.7891 4.4373 4.3044 11.719 0.29191 4.125 0.94775 13.406 1.4574 20.625s1.1623 24.305 1.4503 37.969c0.28795 13.664 0.67673 27.797 0.86397 31.406 0.18724 3.6094 0.59941 16.055 0.91593 27.656 0.83814 30.721 2.3782 47.936 4.2419 47.418 0.8021-0.22303 3.2595-0.68578 5.461-1.0282l4.0026-0.62278-0.47854-32.493c-0.2632-17.871-0.93616-35.868-1.4955-39.993-0.55931-4.125-1.1524-14.883-1.3179-23.906-0.16551-9.0234-0.6132-24.685-0.99485-34.804-0.71864-19.053-0.13056-24.001 1.9964-16.797 2.1799 7.3828 3.4297 24.735 4.6957 65.195 0.32267 10.312 0.75067 19.029 0.95109 19.369 0.20043 0.34072 0.62328 12.786 0.93968 27.656 0.79331 37.284 0.63091 36.768 10.406 33.052l2.2064-0.83888-0.46454-27.9c-0.2555-15.345-0.7063-35.916-1.0018-45.713-1.0644-35.293-1.2172-52.981-0.4617-53.448 3.1934-1.9736 4.6456 10.067 5.2588 43.604 0.12729 6.9609 0.48881 18.773 0.80338 26.25 0.31456 7.4766 0.65748 22.96 0.76203 34.408 0.21514 23.556 0.055 23.059 7.0671 21.95 7.5335-1.1909 7.1935 0.61406 5.8882-31.259-0.63921-15.609-1.3521-35.552-1.5842-44.318-0.23211-8.7656-0.61518-18.303-0.8513-21.194-0.48836-5.9804 0.36126-14.899 1.4193-14.899 2.4374 0 2.9171 5.6416 6.5208 76.679 0.5569 10.978 0.76573 20.359 0.46409 20.847-0.30165 0.48808-0.26188 3.4204 0.0884 6.5163l0.63683 5.6288 3.8642-0.60291c5.5076-0.85931 5.6889-3.9064 3.814-64.068-1.0876-34.898-1.1164-33.195 0.56766-33.528 2.1765-0.43063 3.495 6.4976 4.2397 22.278 0.35281 7.4766 0.77038 14.648 0.92794 15.938 0.15755 1.2891 0.55902 14.578 0.89215 29.531 0.67323 30.22 0.49506 29.494 6.7647 27.54l4.4706-1.3933-0.10214-10.73c-0.50533-53.083-0.40768-64.031 0.57975-65.004 2.006-1.9751 3.5318 1.9656 3.6437 9.4105 0.0586 3.8986 0.27083 7.3612 0.4716 7.6947 0.38146 0.63346 1.9296 51.192 1.7051 55.684-0.12128 2.4267 0.10294 2.5773 3.8178 2.5638 6.7939-0.0247 6.4444 1.5434 6.9189-31.04 0.23561-16.178 0.62627-30.012 0.86815-30.743 1.1095-3.3522 2.3922 1.3352 2.8277 10.333 0.25942 5.36 0.67953 11.644 0.93359 13.964 0.25408 2.3203 0.7891 10.874 1.189 19.009 0.81009 16.48 1.0107 16.988 6.2763 15.885l3.683-0.77115-0.35555-16.41c-0.36633-16.908 0.0267-20.525 2.2306-20.525 1.8979 0 2.2085 1.9188 2.8072 17.344 0.7766 20.007 1.7229 21.844 9.0995 17.663 0.36119-0.20475 0.6361-5.0558 0.6109-10.78-0.034-7.7274 0.27774-10.608 1.2104-11.184 2.197-1.3578 2.9393 0.68392 3.9933 10.984 0.56574 5.5284 1.345 9.978 1.7318 9.888 0.38671-0.09 2.5406-0.16372 4.7863-0.16372h4.0832l0.5815-6.2272c0.88535-9.481 2.5847-9.6455 3.2595-0.31559l0.40545 5.6053h4.5748c2.5162 0 4.5813-0.31641 4.5892-0.70312 0.0499-2.4446 1.7802-3.4106 3.444-1.9228 1.6517 1.477 31.275 0.55228 50.917-1.5894 2.8359-0.30924 7.8984-0.79085 11.25-1.0702 3.3516-0.27941 6.2721-0.68358 6.4901-0.89818 0.5329-0.52457 0.84497-17.508 1.4368-78.191 0.7603-77.958 1.4214-125.02 1.9163-136.41 0.51615-11.877 1.2357-51.511 1.8893-104.06 0.54685-43.969 1.4337-58.731 3.3445-55.67 0.44453 0.71208 0.72706 7.6786 0.62786 15.481-0.12251 9.6342 0.16876 14.607 0.9077 15.497 1.3023 1.5692 0.88454 99.904-0.58081 136.72-0.50277 12.633-0.99062 32.039-1.0841 43.125s-0.30949 38.297-0.47999 60.469c-0.17051 22.172-0.43867 54.166-0.5959 71.099-0.32338 34.822-0.67936 32.706 5.4377 32.318l4.5968-0.29161 0.58875-8.9062c0.32381-4.8984 0.88838-33.797 1.2546-64.219s1.011-60.163 1.4328-66.091c0.42179-5.9282 0.59713-11.053 0.38963-11.389-0.35664-0.57704 0.82734-46.237 1.9655-75.801 0.5062-13.148 0.76513-24.948 1.8619-84.844 0.28325-15.469 0.67944-30.409 0.88045-33.201 1.2356-17.163 1.5141-28.994 1.9549-83.049 0.43077-52.827 0.87267-74.121 2.7821-134.06 1.3682-42.949 1.5537-52.047 1.4856-72.848-0.041-12.527-0.24057-25.941-0.44353-29.808-2.8241-53.81-0.35475-122.14 4.3814-121.25 3.9455 0.74739 6.4872 2.0764 5.8727 3.0707-0.26922 0.43561-0.70155 12.332-0.96074 26.437-0.25918 14.105-0.68293 27.755-0.94167 30.333-0.25874 2.5781-0.69277 14.602-0.9645 26.719-0.97466 43.462-1.326 57.903-1.8017 74.062-0.26565 9.0234-0.72754 28.641-1.0264 43.594-0.29889 14.953-0.71039 27.82-0.91443 28.594-0.38727 1.468-1.2688 27.539-1.8545 54.844-0.44188 20.602-1.2144 41.748-1.9351 52.969-0.31461 4.8984-0.77987 22.828-1.0339 39.844-0.53161 35.607-0.78125 45.562-1.1756 46.875-0.8273 2.7554 0.26716 16.054 1.5688 19.062 1.5997 3.6967 2.2668 150.89 0.87167 192.34-0.33841 10.055-0.84995 36.422-1.1368 58.594-0.2868 22.172-0.69469 44.32-0.90642 49.219-0.21174 4.8984-0.65756 15.762-0.99072 24.141l-0.60573 15.234h3.7263c6.6277 0 6.5955 0.27937 7.2415-62.812 0.2455-23.977 0.68195-49.922 0.96989-57.656 0.28793-7.7344 0.71686-26.086 0.95317-40.781 0.2363-14.695 0.59764-30.305 0.80296-34.688 0.20533-4.3828 0.63205-17.25 0.94828-28.594 0.31622-11.344 0.76506-22.734 0.9974-25.312 0.23234-2.5781 0.68004-18.388 0.99488-35.132s0.72282-30.688 0.90663-30.986c1.2286-1.9879 1.972-26.983 3.722-125.13 0.48168-27.015 1.1829-54.833 1.9025-75.469 1.7872-51.254 2.1078-82.601 1.0956-107.11-0.73305-17.751-1.5301-88.491-1.418-125.86 0.0293-9.7969 0.0203-21.82-0.0202-26.719-0.11417-13.817 0.32218-14.621 6.3149-11.632l2.9938 1.4935-0.54521 31.553c-0.29988 17.354-0.67162 41.889-0.82611 54.522-0.93483 76.443-2.2206 141.84-2.9673 150.94-0.27524 3.3516-0.68918 16.219-0.91987 28.594-0.69068 37.051-1.3246 67.44-1.4275 68.438-0.0532 0.51562-0.10332 11.062-0.11137 23.438-8e-3 12.375-0.0217 23.555-0.0306 24.844-8e-3 1.2891-0.40112 7.8281-0.87188 14.531-1.9303 27.486-2.1094 58.111-0.3554 60.788 1.7328 2.6445 1.0832 69.539-1.0074 103.74-0.2994 4.8984-0.66711 11.859-0.81713 15.469-0.15003 3.6094-0.53858 10.992-0.86346 16.406-0.5791 9.6505-1.084 34.24-2.05 99.844-0.26573 18.047-0.63299 35.344-0.81612 38.438-0.18312 3.0938-0.58096 14.062-0.88406 24.375-0.93681 31.872-1.1311 30.706 5.0372 30.245 4.398-0.32861 4.7816-4.3468 6.1105-63.995 0.16083-7.2188 0.55439-18.82 0.8746-25.781 0.3202-6.9609 0.76699-21.727 0.99286-32.812 0.64258-31.539 1.4076-58.74 1.9158-68.12 0.25595-4.7236 0.68349-21.388 0.95009-37.031 0.26659-15.644 0.64517-32.029 0.84129-36.412 0.19611-4.3828 0.42285-15.265 0.50386-24.182 0.12163-13.389 0.44476-16.9 1.8549-20.156 1.4055-3.2452 1.8193-7.675 2.3389-25.037 0.34721-11.602 0.78302-23.625 0.96846-26.719s0.58345-17.016 0.88447-30.938c0.30103-13.922 0.73984-31.008 0.97513-37.969 0.2353-6.9609 0.6762-23.625 0.97978-37.031 0.30357-13.406 0.71453-30.07 0.91324-37.031s0.5968-21.516 0.88465-32.344c0.28784-10.828 0.77572-26.491 1.0842-34.807 0.42822-11.544 0.27143-15.645-0.66312-17.344-0.94454-1.7169-1.2819-11.855-1.4779-44.412-0.13969-23.203-0.48697-60.539-0.77172-82.969-0.64697-50.963-0.65594-46.34 0.11203-57.796 0.61968-9.2438 2.4967-12.129 7.2793-11.191 5.14 1.009 5.3709 2.0228 4.7104 20.678-0.32917 9.2962-0.59531 25.129-0.59141 35.183 4e-3 10.055-0.32366 24.609-0.72789 32.344-0.40424 7.7344-0.99854 27.773-1.3207 44.531-0.84963 44.198-1.9658 84.092-3.8165 136.41-0.23713 6.7031-0.72247 23.789-1.0785 37.969-0.69009 27.481-0.69728 27.784-1.6149 67.969-0.52558 23.016-1.4368 45.147-2.9914 72.656-1.2597 22.29-1.3444 26.25-0.56125 26.25 2.4678 0 3.1314 5.8716 2.5652 22.695-0.87567 26.016-1.378 45.412-1.9374 74.805-0.73002 38.361-2.2418 93.114-2.8604 103.59-0.1826 3.0938-0.57912 13.008-0.88115 22.031s-0.99479 29.062-1.5395 44.531-1.0613 31.5-1.1479 35.625l-0.15761 7.5 5.7754 0.27693 5.7754 0.27693 0.5572-6.8394c0.30646-3.7617 0.75342-11.691 0.99325-17.621 0.23982-5.9297 0.67277-16.055 0.96208-22.5 0.28933-6.4453 0.70087-22.055 0.91454-34.688 0.21369-12.633 0.62599-29.719 0.91623-37.969 0.29025-8.25 0.79198-27.867 1.115-43.594 0.32298-15.727 0.70382-31.125 0.84631-34.219s0.5369-19.758 0.87645-37.031c0.33956-17.273 0.99937-32.25 1.4662-33.281 0.98293-2.1711 1.3877-9.7955 2.6378-49.688 0.50091-15.984 1.1558-32.648 1.4554-37.031 0.29958-4.3828 0.75466-14.719 1.0113-22.969 0.91752-29.496 1.5162-46.073 1.9807-54.844 0.25942-4.8984 0.63333-14.391 0.83088-21.094 0.19756-6.7031 0.99933-29.695 1.7817-51.094 1.0856-29.69 2.352-68.098 2.6585-80.625 0.0966-3.9473-0.44076-5.4665-2.0856-5.8966-1.8415-0.48157-1.8755-1.291-1.9038-45.344-0.0756-117.65 0.41655-134.02 4.2318-140.84 0.75641-1.3505 1.6459-3.1938 1.9767-4.0961 1.9607-5.3487 5.4672 0.0135 7.2035 11.016 1.8989 12.033 1.2419 65.35-0.88377 71.719-0.25815 0.77344-0.63949 7.3125-0.84741 14.531-0.20794 7.2188-0.73852 17.344-1.1791 22.5-0.44056 5.1562-0.89313 21.398-1.0057 36.094-0.11259 14.695-0.42633 33.891-0.69721 42.656-0.27087 8.7656-0.61878 21-0.77311 27.188-0.44862 17.986-2.2835 62.294-2.8341 68.438-0.27728 3.0938-0.7198 11.742-0.98339 19.219-0.80114 22.723-1.4656 41.345-1.7395 48.75-0.14304 3.8672-0.58192 17.578-0.97529 30.469s-0.98932 24.914-1.3244 26.719c-0.57367 3.0903-0.54043 56.641 0.0524 84.375 0.29251 13.685-0.89962 71.976-1.4926 72.981-0.4752 0.80553-1.4234 50.199-1.9555 101.86-0.54237 52.664-1.2146 77.499-2.3709 87.589-0.50653 4.42-0.92441 9.8293-0.92864 12.021l-0.00764 3.9844h9.375l0.0308-8.6719c0.0169-4.7695 0.21988-12.68 0.45107-17.578 0.23118-4.8984 0.8547-24.094 1.3856-42.656s1.1569-39.234 1.3912-45.938c0.23427-6.7031 0.66965-25.477 0.9675-41.719 1.1276-61.487 3.3716-105.71 5.5663-109.69 1.2904-2.3428 1.7183-9.8151 2.8448-49.681 0.83196-29.441 1.4337-52.611 1.8868-72.656 1.1985-53.015 1.5356-67.314 2.3646-100.31 0.49225-19.594 1.1754-45.475 1.518-57.514 0.4676-16.429 0.34603-22.061-0.48736-22.576-0.61071-0.37744-1.3323-2.5272-1.6035-4.7773-0.27121-2.25-0.65392-4.3512-0.85046-4.6692s0.0285-4.6564 0.50006-9.6408c0.47158-4.9844 1.0754-25.42 1.3418-45.411 0.26638-19.992 0.90833-51.114 1.4266-69.161 0.51823-18.047 1.1483-40.828 1.4001-50.625 0.52632-20.474 0.85614-22.55 3.8981-24.544 5.2455-3.437 10.651 3.6383 9.3111 12.188-0.76935 4.9097-1.8362 20.309-1.9276 27.825-0.0471 3.8672-0.40065 9.9844-0.78575 13.594-1.952 18.295-2.4822 27.396-2.9496 50.625-0.28009 13.922-0.71084 29.531-0.95722 34.688-0.24637 5.1562-0.67051 19.922-0.94252 32.812-0.50899 24.123-0.7149 29.981-2.4879 70.781-1.7467 40.196-2.1208 53.9-3.0582 112.03-0.54546 33.824-1.742 74.507-2.9226 99.375-0.26929 5.6719-0.53128 15.164-0.58219 21.094-0.0509 5.9297-0.29737 11.134-0.54766 11.565-0.74106 1.2768-0.55292 20.384 0.25074 25.466 1.0079 6.373 1.1042 12.881 0.29808 20.156-0.37135 3.3516-0.88304 7.9922-1.1371 10.312-0.99545 9.0927-1.5564 25.329-2.0245 58.594-0.26844 19.078-0.87998 43.969-1.359 55.312-0.479 11.344-1.1105 29.695-1.4033 40.781-0.65156 24.668-1.3376 43.357-2.0666 56.302-0.30332 5.3856-0.60097 13.378-0.66146 17.761l-0.10996 7.9688 4.1117 0.29451c5.7817 0.4141 5.6362 0.93991 6.1843-22.351 0.27269-11.588 0.66254-22.967 0.86634-25.287 0.20379-2.3203 0.62674-13.711 0.93987-25.312 0.54239-20.095 1.02-34.119 1.9795-58.125 0.23701-5.9297 0.87416-22.594 1.4159-37.031s1.594-38.906 2.3384-54.375 1.5721-38.039 1.8394-50.156c0.26725-12.117 0.70317-26.672 0.96872-32.344 0.26556-5.6719 0.68231-15.797 0.92611-22.5 0.2438-6.7031 0.65415-16.617 0.91189-22.031 0.54687-11.487 1.1837-33.249 1.934-66.094 0.29452-12.891 0.87145-32.297 1.2821-43.125 0.41064-10.828 0.77682-20.742 0.81375-22.031 0.0369-1.2891 0.30291-22.383 0.59107-46.875 0.28815-24.492 0.71073-47.906 0.93909-52.031 0.22835-4.125 0.66074-19.102 0.96088-33.281 0.51449-24.307 0.75364-33.384 1.9635-74.531 0.27291-9.2812 0.92965-22.57 1.4594-29.531 0.52977-6.9609 1.0504-21.727 1.157-32.812 0.21716-22.588 0.80376-25.312 5.4497-25.312 5.5548 0 7.2864 32.021 4.1826 77.344-0.21187 3.0938-0.65068 13.43-0.97512 22.969-0.59419 17.469-1.2425 31.88-1.9401 43.125-0.20792 3.3516-0.8363 16.219-1.3964 28.594-0.56011 12.375-1.6747 30.516-2.4769 40.312-1.5065 18.399-1.7242 21.368-2.6117 35.625-2.253 36.191-4.1353 81.059-4.2639 101.64-0.0529 8.462-0.24959 15.634-0.43715 15.938-0.99834 1.6157-2.1384 63.327-1.7595 95.239 0.0919 7.7344 0.0919 20.602 0 28.594s-6e-3 18.75 0.19069 23.906c0.35261 9.2424-0.38451 43.679-1.4047 65.625-0.28763 6.1875-0.4751 20.204-0.41661 31.147 0.0585 10.943-0.34498 26.975-0.89661 35.625-1.2769 20.024-2.0972 40.509-2.4317 60.728-0.14502 8.7656-0.71046 24.164-1.2566 34.219-0.54607 10.055-1.1776 22.184-1.4033 26.953l-0.41048 8.6719h10.206l0.13156-4.4531c0.2361-7.9921 0.57422-14.591 1.2849-25.078 0.38437-5.6719 0.79324-31.406 0.90858-57.188 0.11535-25.781 0.48188-54.047 0.81453-62.812 0.58199-15.336 1.0498-33.468 2.0559-79.688 0.55764-25.618 1.6791-39.382 3.7812-46.406 1.1442-3.8232 1.7523-11.579 2.3524-30 0.44509-13.664 0.98561-28.008 1.2012-31.875s0.69142-17.578 1.0575-30.469c0.36606-12.891 0.79908-25.758 0.96227-28.594 0.3772-6.5552 1.2358-45.087 1.8802-84.375 0.53354-32.531 1.9941-78.692 2.7586-87.188 0.2552-2.8359 0.68571-11.695 0.95669-19.688 0.88881-26.215 1.4682-40.671 1.9162-47.812 1.2636-20.143 3.1291-72.749 3.703-104.42 0.51487-28.417 2.431-34.75 8.3757-27.686l2.4319 2.8902-0.45186 18.907c-0.24853 10.399-0.69045 22.493-0.98205 26.875-0.29159 4.3828-0.9334 21.047-1.4262 37.031-0.98023 31.793-2.5318 67.892-3.2034 74.531-0.69443 6.865-2.2457 29.614-2.8447 41.719-0.49316 9.9651-1.2754 20.882-2.8216 39.375-0.82747 9.8974-2.0308 35.919-3.273 70.781-0.52365 14.695-1.1738 30.516-1.4447 35.156-0.89134 15.266-1.2356 23.202-1.8503 42.656-0.334 10.57-0.96277 28.289-1.3973 39.375-1.0992 28.046-2.1294 75.193-3.2367 148.12-0.23092 15.211-0.68936 36.516-1.0188 47.344-0.88407 29.063-1.2459 45.569-1.264 57.656-8e-3 5.9297-0.0332 11.836-0.054 13.125-0.085 5.2624-0.90238 38.229-1.3781 55.584-0.55796 20.355-0.8956 19.16 5.5432 19.618l3.75 0.26654 0.19825-3.75c0.10904-2.0625 0.40401-14.719 0.65549-28.125 0.55724-29.706 1.3526-64.711 1.9703-86.719 0.25328-9.0234 0.67363-28.219 0.93409-42.656 0.26048-14.438 0.6829-29.625 0.93871-33.75 0.25583-4.125 0.69781-16.542 0.98219-27.594 0.28439-11.052 0.70033-20.391 0.92432-20.753s0.80465-5.2355 1.2904-10.829c0.71648-8.2512 1.2257-10.448 2.6989-11.64 2.0726-1.6783 2.6372-8.4268 3.527-42.152 0.27887-10.57 0.66837-24.07 0.86555-30 0.19717-5.9297 0.60174-19.641 0.89904-30.469 0.29729-10.828 0.78298-26.227 1.0793-34.219 1.2321-33.232 1.6963-62.355 1.0125-63.521-0.22525-0.38387 0.15399-10.823 0.84273-23.198 0.68875-12.375 1.4875-30.938 1.775-41.25 0.28747-10.312 0.73033-20.859 0.98412-23.438 0.2538-2.5781 0.88014-16.078 1.3919-30 0.51172-13.922 1.1441-31.008 1.4052-37.969 0.26115-6.9609 0.68958-19.406 0.95206-27.656s0.90019-25.969 1.4171-39.375 0.95389-35.574 0.971-49.263c0.0384-30.737 1.0795-35.622 6.4884-30.44 5.5592 5.326 6.0104 8.8407 5.1733 40.291-1.118 42.002-1.1155 41.927-1.967 59.098-0.43469 8.7656-0.83533 18.891-0.89031 22.5-0.16767 11.006-2.2828 51.891-3.2252 62.344-1.4454 16.03-2.7184 35.177-3.3034 49.688-0.30146 7.4766-1.3371 20.344-2.3014 28.594-2.9452 25.197-3.9472 41.586-5.2165 85.312-0.73867 25.449-2.2308 61.924-2.7804 67.969-0.25785 2.8359-0.69293 14.859-0.96685 26.719-0.27391 11.859-0.67519 22.617-0.89175 23.906-0.21655 1.2891-0.63212 13.312-0.92348 26.719s-0.72707 27.75-0.96824 31.875c-0.24118 4.125-0.67228 15.516-0.958 25.312-0.28574 9.7969-0.70457 19.5-0.93076 21.562-0.66445 6.0587-1.3791 27.964-1.9116 58.594-0.27342 15.727-0.6726 33.867-0.88705 40.312-0.21447 6.4453-0.6392 21.844-0.94387 34.219s-0.81904 27.773-1.1431 34.219-0.62091 15.938-0.65978 21.094l-0.0707 9.375 4.3681 0.28227c6.0189 0.38894 5.6821 2.7605 7.3631-51.845 0.4762-15.469 1.0594-33.188 1.296-39.375 0.49755-13.011 1.3098-41.153 2.0024-69.375 0.84667-34.5 1.3375-52.115 1.8678-67.031 0.28411-7.9922 0.73558-22.125 1.0033-31.406 0.26767-9.2812 0.65035-18.352 0.85039-20.156s0.80759-11.297 1.3501-21.094c0.54253-9.7969 1.4227-20.344 1.956-23.438 0.86388-5.012 1.388-14.423 2.2711-40.781 0.14684-4.3828 0.53618-14.93 0.86521-23.438 0.88192-22.804 1.4822-41.336 2.0041-61.875 0.25552-10.055 0.66409-21.445 0.90792-25.312 0.24385-3.8672 0.68236-16.312 0.97448-27.656 0.29211-11.344 0.92243-27.375 1.4007-35.625 0.47828-8.25 1.306-24.703 1.8393-36.562 0.53335-11.859 1.3795-29.578 1.8803-39.375 1.4439-28.246 1.932-42.462 2.4177-70.42 0.79172-45.572 2.1544-81.227 3.1421-82.215 1.117-1.117 3.8338 0.78676 3.8338 2.6866 0 0.67555 0.77621 1.4746 1.7249 1.7757 4.1577 1.3196 5.7782 22.098 3.4766 44.579-0.29033 2.8359-0.93999 10.863-1.4437 17.837-0.50367 6.9744-1.4039 16.888-2.0005 22.031-1.2454 10.735-1.432 14.053-2.1616 38.413-1.5434 51.533-3.4078 92.05-5.2632 114.38-0.51423 6.1875-1.0933 16.312-1.2868 22.5s-0.80391 14.625-1.3565 18.75c-2.3899 17.841-2.9833 24.158-3.3905 36.094-1.2244 35.891-1.6386 45.754-2.0469 48.75-0.24599 1.8047-0.58431 9.6094-0.75181 17.344-0.1675 7.7344-0.5387 17.648-0.82486 22.031-2.2865 35.019-2.7653 75.059-0.91373 76.419 1.5843 1.1636 1.6946 3.0308 1.5329 25.933-0.53965 76.406-1.6449 130.41-4.0647 198.59-1.3351 37.617-1.9858 61.864-1.6623 61.941 10.363 2.4773 9.9324 3.5938 10.509-27.254 0.24571-13.148 0.66719-29.602 0.9366-36.562 0.64735-16.726 1.5302-57.569 1.9859-91.875 0.20205-15.211 0.62627-35.039 0.9427-44.062 0.31642-9.0234 0.756-21.891 0.97683-28.594 0.66217-20.099 1.2562-35.939 1.7756-47.344 0.27004-5.9297 0.67882-17.742 0.9084-26.25 0.22956-8.5078 1.1032-31.922 1.9414-52.031 0.83824-20.109 1.6504-41.836 1.8049-48.281 0.37501-15.649 2.2463-54.832 2.8431-59.531 0.26196-2.0625 1.1078-16.406 1.8797-31.875s1.6234-32.133 1.8923-37.031c0.26888-4.8984 0.71269-15.445 0.98623-23.438 0.27356-7.9922 0.8768-22.336 1.3406-31.875 0.46374-9.5391 1.2861-26.836 1.8275-38.438s1.4059-26.578 1.9212-33.281c0.51527-6.7031 1.1688-20.836 1.4522-31.406 0.95669-35.674 2.4298-68.903 3.0805-69.487 0.35568-0.31933 2.179-0.38445 4.0519-0.14471 5.4634 0.69936 5.7812 2.1337 4.64 20.942-0.54546 8.9902-1.2257 24.994-1.5116 35.564s-0.92106 24.703-1.4114 31.406c-0.49036 6.7031-1.306 21.258-1.8125 32.344-1.1082 24.253-3.3056 56.269-5.1798 75.469-0.75501 7.7344-1.572 19.969-1.8155 27.188-0.467 13.845-1.1386 26.882-1.787 34.688-0.21416 2.5781-0.87014 17.766-1.4577 33.75-0.58759 15.984-1.4831 36.234-1.9901 45-0.50693 8.7656-1.1418 22.055-1.4109 29.531-0.26904 7.4766-0.6882 16.125-0.93144 19.219-0.90269 11.481-1.8541 38.679-1.6068 45.938 1.1226 32.959-0.83905 172.4-3.0993 220.31-0.24326 5.1562-0.65273 14.227-0.90994 20.156-0.2572 5.9297-0.67431 14.578-0.92691 19.219-2.3381 42.955-3.1441 69.363-2.1474 70.359 0.18481 0.18479 2.1371 0.624 4.3385 0.97604l4.0024 0.64003-0.14655-6.4565c-0.0806-3.551 0.091-10.675 0.38132-15.831 0.29033-5.1562 0.77672-17.812 1.0809-28.125 0.30414-10.312 0.97052-23.391 1.4808-29.062 0.5103-5.6719 0.85444-13.688 0.76475-17.812-0.15282-7.0279 0.68162-36.879 1.4413-51.562 0.18675-3.6094 0.58988-11.836 0.89586-18.281s0.7822-16.359 1.0583-22.031c0.27607-5.6719 0.69977-15.797 0.94156-22.5 0.24179-6.7031 1.0889-24.633 1.8825-39.844 1.6453-31.537 2.0503-41.678 2.7146-67.969 0.26057-10.312 0.69776-22.758 0.97154-27.656 0.27377-4.8984 0.70653-17.555 0.96167-28.125 0.25515-10.57 0.66908-22.805 0.91985-27.188 0.25078-4.3828 0.69506-14.93 0.98728-23.438 2.0564-59.871 2.2496-63.967 4.1327-87.656 0.49186-6.1875 0.87504-11.883 0.8515-12.656-0.1201-3.9471 1.2235-30.837 1.9908-39.844 0.48322-5.6719 1.1322-14.32 1.4421-19.219 0.30993-4.8984 0.97908-13.271 1.487-18.607 0.50793-5.3352 1.3445-19.257 1.8591-30.938 0.51453-11.68 1.3155-29.675 1.78-39.987s0.8687-32.117 0.89831-48.455c0.0584-32.216 0.35871-34.514 4.5096-34.514 5.4675 0 7.0791 2.3146 6.4542 9.2697-0.3063 3.4095-1.2377 14.426-2.0698 24.48-0.83209 10.055-1.7259 18.914-1.9862 19.688-0.26028 0.77344-0.58778 5.2031-0.72776 9.8438-0.13997 4.6406-0.75089 14.133-1.3576 21.094-0.60671 6.9609-1.2926 17.086-1.5243 22.5s-0.89112 19.125-1.4655 30.469-1.165 24-1.3127 28.125c-0.1476 4.125-0.74782 21-1.3338 37.5s-1.5056 38.648-2.0435 49.219c-1.4436 28.366-2.2729 51.778-3.188 90-0.16667 6.9609-0.54748 18.773-0.84625 26.25s-0.95414 27.305-1.4564 44.062c-0.50222 16.758-1.2139 40.383-1.5816 52.5s-0.65391 23.086-0.63618 24.375c0.0177 1.2891-0.52075 9.5156-1.1966 18.281-1.2505 16.218-2.4289 34.668-2.485 38.906-0.0171 1.2891-0.37082 9.9375-0.7861 19.219-0.69036 15.429-1.3213 38.084-2.2846 82.031-0.19779 9.0234-0.96934 25.688-1.7146 37.031-0.74522 11.344-1.3433 21.258-1.3291 22.031 0.0142 0.77344-0.49791 9.8438-1.138 20.156-1.7992 28.984-1.7627 32.701 0.32514 33.113 2.7801 0.549 3.3026-0.77653 3.445-8.7384 0.0738-4.125 0.50272-12.352 0.95324-18.281s1.0463-21.473 1.324-34.541c0.27765-13.068 0.68841-24.057 0.91281-24.42 0.22439-0.36308 0.6603-11.609 0.96867-24.99 0.30838-13.381 1.0134-29.888 1.5667-36.681 0.5533-6.7932 0.74094-12.78 0.41694-13.304s0.028-10.576 0.78231-22.336c0.75427-11.761 1.6272-26.834 1.9398-33.496 0.31264-6.6621 0.76622-12.433 1.008-12.824 0.24175-0.39115 0.66741-9.9169 0.94592-21.168 0.27851-11.251 0.94222-22.441 1.4749-24.866 0.53268-2.4248 0.71492-4.8189 0.40499-5.3204-0.30994-0.50149-0.15647-4.8457 0.34104-9.6539 0.49751-4.8081 1.151-12.961 1.4521-18.117s0.74585-10.852 0.98829-12.656c0.46869-3.4888 2.2018-36.691 2.8139-53.906 0.20165-5.6719 0.80558-14.953 1.3421-20.625 0.53649-5.6719 1.6044-26.133 2.3731-45.469s1.5866-38.32 1.8175-42.188 0.66101-12.938 0.95575-20.156 0.95234-19.664 1.4613-27.656 1.3476-21.281 1.8636-29.531 1.3407-20.695 1.8326-27.656c0.9922-14.039 1.3992-22.487 2.8679-59.531 0.55199-13.922 1.3665-29.109 1.81-33.75 0.44353-4.6406 0.86154-15.017 0.9289-23.059 0.32484-38.784 1.9716-53.646 5.5473-50.066 2.2831 2.2861 1.6001 53.347-1.2102 90.469-0.29276 3.8672-0.74937 13.57-1.0147 21.562-0.2653 7.9922-0.69592 17.695-0.95694 21.562-0.79207 11.735-1.3513 22.338-1.8789 35.625-0.27643 6.9609-0.71846 15.188-0.9823 18.281s-0.6427 9-0.84191 13.125c-0.67208 13.917-1.4128 28.035-2.4534 46.76-0.56955 10.249-1.1535 23.96-1.2977 30.469-0.14418 6.5084-0.52622 16.474-0.84898 22.146-0.75963 13.349-2.304 57.701-2.987 85.781-0.29472 12.117-0.69154 23.508-0.88181 25.312-0.33204 3.1493-1.5417 22.223-2.8539 45-0.34161 5.9297-0.72921 15.633-0.86133 21.562-0.13213 5.9297-0.5005 13.945-0.81862 17.812s-0.80036 12.938-1.0716 20.156c-0.9747 25.935-1.6514 36.094-2.4045 36.094-0.42119 0-0.53383 1.4295-0.25031 3.1766s-0.0115 11.767-0.65571 22.266c-0.64416 10.499-1.2849 24.995-1.424 32.214-0.39949 20.744-1.3747 52.611-1.9079 62.344-1.125 20.535-1.3397 25.692-1.7759 42.656-0.25191 9.7969-0.72904 23.24-1.0603 29.874-0.65697 13.156-0.48284 13.678 4.573 13.706 3.6232 0.0197 4.0936-1.8956 4.2549-17.329 0.0755-7.2188 0.36892-16.5 0.65213-20.625 0.52163-7.5977 0.891-13.442 1.8664-29.531 0.29697-4.8984 0.92942-13.758 1.4054-19.688 0.47602-5.9297 1.1126-19.008 1.4147-29.062s0.72105-19.125 0.93109-20.156c0.21003-1.0312 0.61959-6.9375 0.91014-13.125 1.9458-41.438 2.4673-53.077 3.2764-73.125 1.0499-26.015 2.4631-51.73 3.8451-69.97 0.53267-7.0305 1.3496-22.64 1.8153-34.688 0.46571-12.048 1.2706-28.866 1.7886-37.374 0.51801-8.5078 1.1598-19.477 1.4262-24.375 0.95969-17.646 3.2513-77.805 3.7854-99.375 0.60956-24.616 1.6751-46.81 3.8483-80.156 1.8613-28.559 1.9244-29.646 3.1574-54.375 0.56562-11.344 1.4199-26.953 1.8983-34.688 0.47846-7.7344 1.1418-25.664 1.4741-39.844 0.62203-26.545 0.68304-27.968 1.8551-43.266 0.6627-8.6502 1.5624-12.184 2.7898-10.956 0.31176 0.31177 0.11665 9.3699-0.4336 20.129-0.55024 10.759-0.93603 20.828-0.8573 22.375 0.18179 3.5719-0.9371 56.054-1.539 72.188-0.25008 6.7031-0.62194 17.461-0.82635 23.906-0.20442 6.4453-0.86612 18.891-1.4704 27.656-0.60433 8.7656-1.2672 19.102-1.4731 22.969-3.6975 69.447-4.5985 92.493-5.5526 142.03-0.25821 13.406-0.69988 29.859-0.98149 36.562-1.7664 42.045-2.3975 58.037-2.8488 72.188-0.27955 8.7656-0.69352 17.625-0.91993 19.688-0.81216 7.3985-2.2734 31.191-2.735 44.531-0.25868 7.4766-0.69183 18.234-0.96256 23.906-0.27073 5.6719-0.92688 22.15-1.4581 36.618s-1.1445 27.335-1.3629 28.594c-0.21837 1.2586-1.2527 20.007-2.2986 41.663s-2.1388 41.484-2.4288 44.062c-0.29 2.5781-0.72067 7.8516-0.95704 11.719s-0.67696 9.1406-0.9791 11.719c-0.30213 2.5781-0.71901 11.859-0.92641 20.625-0.20739 8.7656-0.77491 19.094-1.2611 22.951-0.48624 3.8575-0.72845 7.1692-0.53825 7.3595 1.842 1.842 4.3246-10.358 4.0695-19.998-0.0818-3.0938 0.34906-13.219 0.9576-22.5 0.60853-9.2812 1.2622-19.406 1.4526-22.5 1.0177-16.533 2.4714-37.021 2.8603-40.312 0.24374-2.0625 0.69613-8.1797 1.0053-13.594s0.73574-11.531 0.9479-13.594 0.60531-8.3906 0.87368-14.062c1.0142-21.434 1.6129-32.993 1.9911-38.438 1.1608-16.711 2.0698-35.854 2.1956-46.238 0.0782-6.4566 0.3078-12.007 0.51016-12.335 0.33212-0.53739 1.8471-23.29 2.748-41.271 1.213-24.21 1.6992-34.773 2.9343-63.75 1.1981-28.111 3.2567-66.645 4.6076-86.25 0.23093-3.3516 0.85932-15.586 1.3964-27.188s1.1914-24.258 1.4541-28.125c1.1526-16.971 1.47-21.344 1.8366-25.312 0.21437-2.3203 0.63949-8.6484 0.94471-14.062 0.30523-5.4141 0.75723-12.164 1.0045-15 0.24724-2.8359 0.87263-11.906 1.3898-20.156 0.51713-8.25 1.7703-27.867 2.7849-43.594s2.2738-37.031 2.7983-47.344c0.52448-10.312 1.3446-24.867 1.8224-32.344 1.0207-15.97 1.8471-33.04 2.4489-50.584 0.47584-13.87 0.85095-15.978 2.8433-15.978 1.1498 0 2.0298 5.7323 1.4685 9.5661-0.0532 0.36292-0.30989 10.699-0.57059 22.969s-0.53086 22.414-0.60036 22.543c-0.21271 0.39453-0.51844 4.8745-1.1676 17.109-0.34197 6.4453-1.2395 21.844-1.9945 34.219-0.75499 12.375-1.5822 26.719-1.8382 31.875-0.25599 5.1562-0.89296 15.281-1.4155 22.5-1.698 23.458-3.1907 49.585-4.7135 82.5-0.5248 11.344-1.3581 24.844-1.8517 30-0.49365 5.1562-1.1614 15.07-1.484 22.031-0.57847 12.485-0.70348 14.751-1.7326 31.406-0.28672 4.6406-0.75015 14.977-1.0298 22.969-0.27969 7.9922-0.70489 17.273-0.94489 20.625-0.51878 7.2446-1.1775 23.42-1.8708 45.938-0.59369 19.283-1.2256 33.944-1.9395 45-1.2037 18.641-1.4807 23.339-1.7688 30-0.16731 3.8672-0.5438 10.828-0.83662 15.469-0.29284 4.6406-0.81047 13.711-1.1503 20.156-0.33983 6.4453-0.73665 13.195-0.88181 15s-0.53769 12.352-0.8723 23.438c-0.79449 26.323-1.304 40.328-1.9272 52.969-0.27959 5.6719-0.692 14.953-0.91648 20.625-0.22447 5.6719-0.82945 16.43-1.3444 23.906s-1.1757 19.5-1.4684 26.719c-0.6669 16.449-2.1585 41.813-3.2527 55.31-0.9156 11.294-0.65873 12.171 3.8544 13.162 4.1237 0.90572 4.3068 0.36282 4.9126-14.566 0.93351-23.007 2.281-49.482 3.2689-64.222 0.51843-7.7362 1.0122-19.095 1.0973-25.242 0.13813-9.9776 0.4787-15.806 2.2223-38.036 0.26289-3.3516 0.70938-12.633 0.99222-20.625 0.28282-7.9922 0.72347-16.641 0.97921-19.219 0.49097-4.9497 3.1659-56.879 3.7909-73.594 0.20243-5.4141 0.98942-18.703 1.7488-29.531 1.3382-19.08 1.8134-27.495 2.8323-50.156 1.2941-28.781 1.5747-34.359 2.4522-48.75 0.51876-8.5078 1.1223-18.633 1.3412-22.5 0.21894-3.8672 0.82866-13.992 1.355-22.5 0.5263-8.5078 1.3823-23.906 1.9022-34.219s1.3741-26.133 1.8982-35.156c0.52406-9.0234 1.1725-20.836 1.4409-26.25 0.26844-5.4141 1.1245-21.445 1.9023-35.625 0.77783-14.18 1.6089-30 1.8468-35.156s0.83541-14.438 1.3278-20.625c0.9626-12.096 1.6664-22.879 2.4168-37.031 0.25976-4.8984 0.87034-14.391 1.3569-21.094 0.48651-6.7031 1.3424-21.891 1.9021-33.75 1.5628-33.118 2.0791-38.438 3.7307-38.438 1.8035 0 2.0532 10.78 0.81458 35.156-0.48472 9.5391-1.0828 22.617-1.3292 29.062-0.24632 6.4453-0.90187 17.414-1.4568 24.375-0.55491 6.9609-0.98586 16.664-0.95766 21.562s-0.33309 11.227-0.80284 14.062c-0.46974 2.8359-1.1492 12.328-1.51 21.094-0.36072 8.7656-0.76881 17.203-0.90688 18.75-0.13806 1.5469-0.48982 8.2969-0.7817 15s-0.74506 16.828-1.0071 22.5c-0.26203 5.6719-0.69619 15.164-0.96481 21.094-0.26863 5.9297-0.89765 18.797-1.3978 28.594-0.50019 9.7969-1.1492 22.664-1.4422 28.594-0.293 5.9297-0.91944 16.055-1.3921 22.5-0.93098 12.695-2.2571 39.622-2.1008 42.656 0.0532 1.0312-0.27577 6.0938-0.73087 11.25-0.45508 5.1562-1.0774 19.376-1.3829 31.6-0.30552 12.224-0.75626 23.192-1.0016 24.375-0.24538 1.1825-0.44077 7.2676-0.4342 13.522 7e-3 6.2547-0.40002 15.696-0.90354 20.981-0.50352 5.2846-1.1592 16.389-1.4571 24.677s-0.69655 15.32-0.88597 15.626c-0.54776 0.88631-1.3068 14.076-1.8612 32.344-0.2817 9.2812-0.91173 21.938-1.4 28.125-0.48833 6.1875-1.3873 22.43-1.9977 36.094-1.2171 27.246-1.4368 31.406-1.6588 31.406-0.0818 0-0.3227 8.8594-0.53516 19.688-0.39671 20.218-1.1304 32.679-2.0701 35.156-0.2934 0.77344-0.62225 4.7812-0.73078 8.9062-0.2444 9.289-1.3407 32.783-2.0561 44.062-0.29433 4.6406-0.59813 11.602-0.6751 15.469l-0.13995 7.0312 3.1143-0.14559c4.3763-0.20457 4.1836 0.63506 4.5384-19.77 0.43618-25.083 1.1047-43.894 2.1574-60.71 1.2147-19.402 1.9741-34.546 2.3975-47.812 0.51655-16.183 1.2563-30.104 2.7899-52.5 0.74146-10.828 1.9979-29.812 2.7921-42.188 1.6156-25.174 1.9852-30.042 3.4526-45.469 0.56402-5.9297 1.1418-14.789 1.284-19.688s0.52833-12.703 0.85804-17.344c0.32972-4.6406 0.76994-12.445 0.97825-17.344 0.20832-4.8984 0.83393-17.344 1.3902-27.656 0.55633-10.312 1.1748-22.125 1.3744-26.25 0.19961-4.125 0.82093-15.727 1.3807-25.781s1.49-30.305 2.0671-45c1.9014-48.415 2.58-63.876 3.2996-75.185 0.31819-5.0001 0.69773-11.539 0.84341-14.531 0.14567-2.9921 0.71053-10.925 1.2552-17.628 0.5447-6.7031 1.4401-19.992 1.9897-29.531 0.54964-9.5391 1.4295-22.617 1.9552-29.062 1.3366-16.388 3.1834-62.006 4.0609-100.31 0.38025-16.599 0.81472-22.782 2.0219-28.775 0.3071-1.5244 1.5646-2.3801 4.8628-3.3089 11.333-3.1913 0.24337-11.32-12.111-8.8768-4.0344 0.7977-4.7101 0.66692-7.1466-1.3832-3.0048-2.5284-15.747-7.8508-26.45-11.049-3.8672-1.1554-7.7638-2.4819-8.6592-2.9478-0.89535-0.46597-2.4831-0.84721-3.5284-0.84721s-2.633-0.37009-3.5284-0.82241c-2.4279-1.2266-7.6847-2.6974-12.147-3.3987-2.1762-0.34201-4.9184-1.3506-6.0938-2.2412-1.1753-0.89066-4.8792-2.3823-8.2307-3.3148-3.3516-0.93249-8.625-2.4731-11.719-3.4235-3.0938-0.9504-10.055-2.8094-15.469-4.131-5.4141-1.3217-14.695-3.6794-20.625-5.2393-5.9297-1.56-11.625-3.0506-12.656-3.3125-1.0312-0.26195-4.7924-0.87062-8.3582-1.3526-3.5657-0.48198-7.437-1.5013-8.6028-2.2652-1.1658-0.76387-5.2093-2.2532-8.9856-3.3097-8.8474-2.4751-9.4662-2.6289-16.71-4.1505-3.3516-0.70404-13.477-3.0218-22.5-5.1506-27.912-6.5849-32.121-7.4368-39.375-7.9698-3.8672-0.28412-10.262-0.98725-14.21-1.5625-4.5949-0.66944-7.7508-0.72584-8.7678-0.15667-0.99975 0.55949-3.0309 0.56084-5.4774 4e-3 -4.8941-1.1146-6.1812-1.1361-19.357-0.32311-5.9297 0.36587-14.89 0.67487-19.913 0.68664-5.0224 0.0118-9.3868 0.43424-9.6986 0.9388-0.31183 0.50457-1.7012 0.66827-3.0874 0.36379-1.3863-0.30447-4.3442 0.0898-6.5731 0.87625-2.2289 0.78642-4.448 1.1854-4.9313 0.88675-0.48331-0.29871-1.4871-0.0383-2.2306 0.57887-0.74353 0.61707-3.9946 1.2242-7.2246 1.3492-3.23 0.12498-7.0803 0.71871-8.5562 1.3194-1.476 0.60068-3.1635 1.0082-3.75 0.9055-0.58653-0.10264-4.065 0.73351-7.73 1.8581-3.665 1.1246-7.9 2.0448-9.4112 2.0448s-4.3821 0.83334-6.3799 1.8519c-1.9978 1.0185-4.5127 1.8272-5.5888 1.7971-2.279-0.0637-12.088 2.1485-18.832 4.247-2.5781 0.80231-5.7773 1.4633-7.1094 1.4689-1.332 6e-3 -2.7329 0.32117-3.113 0.70131s-1.1887 0.71103-1.7969 0.7353c-2.8735 0.11472-12.465 2.6767-15.957 4.2622-2.1441 0.97356-4.8876 1.7794-6.0967 1.7907-1.209 0.0113-5.2168 0.89535-8.9062 1.9645-11.218 3.2507-22.345 6.3168-28.271 7.7897-3.0938 0.769-9.4219 2.6987-14.062 4.2882-4.6406 1.5895-11.118 3.5186-14.394 4.2869-3.276 0.76828-8.5494 2.4245-11.719 3.6804-3.1693 1.256-9.1374 3.3963-13.262 4.7564-8.8058 2.9034-21.706 7.8386-30.938 11.836-3.6094 1.5629-7.9569 3.2508-9.6612 3.7509s-3.3212 1.4892-3.5932 2.198c-0.27198 0.70878-1.0978 1.0572-1.8351 0.77424-0.73733-0.28294-1.8626-0.0827-2.5005 0.44491-0.63796 0.52764-3.4666 1.3777-6.2859 1.889s-5.2802 1.3924-5.4688 1.958c-0.18854 0.5655-1.0575 1.0283-1.9311 1.0283-0.87355 0-2.4204 0.54972-3.4375 1.2216-5.853 3.8665-25.174 5.3995-33.171 2.6319-3.1444-1.0882-6.5443-1.9785-7.5554-1.9785-2.2497 0-4.0924-3.1614-3.2993-5.6604 0.4106-1.2937 0.1478-1.8396-0.88556-1.8396-0.80818 0-1.4694 0.39174-1.4694 0.87053 0 0.4788-0.70306 1.5736-1.5624 2.4329-2.6375 2.6375 1.4882 11.697 5.3268 11.697 0.87938 0 3.0471 0.94922 4.8173 2.1094 6.5139 4.2693 9.9022 5.6327 11.616 4.6738 2.2283-1.247 4.9338-0.3937 5.6215 1.773 1.044 3.2892 3.9267 52.919 4.6761 80.506 0.41895 15.422 0.94164 25.945 1.8626 37.5 0.4997 6.2695 0.61734 8.2936 2.2885 39.375 2.0817 38.717 4.6768 101.95 5.252 127.97 0.33057 14.953 0.72222 29.93 0.87032 33.281 0.14811 3.3516 0.52682 13.055 0.84158 21.562 0.31476 8.5078 0.78191 19.055 1.0381 23.438 0.92857 15.885 1.5213 27.903 1.9883 40.312 0.26192 6.9609 0.61499 15.609 0.7846 19.219 0.41755 8.8861 1.2676 33.316 2.4139 69.375 0.52453 16.5 1.3538 36.117 1.8427 43.594 0.48896 7.4766 1.1263 19.5 1.4163 26.719s0.73395 14.812 0.98654 16.875c0.25259 2.0625 0.6655 12.398 0.91759 22.969 0.43004 18.032 0.67841 23.006 1.8493 37.031 0.25827 3.0938 0.66909 11.953 0.91295 19.688 0.5203 16.503 1.0727 25.293 2.472 39.335 1.0158 10.194 1.007 10.286-1.1542 12.036-1.6989 1.3757-2.191 2.734-2.2376 6.1764l-0.05973 4.413 5.1878 1.7193c2.8533 0.94566 6.0199 2.2975 7.037 3.0042 1.0171 0.70669 2.9708 1.2849 4.3416 1.2849h2.4924l-0.31101-12.891zm241.05-46.353c-0.38166-1.3887-0.43987-2.9359-0.12934-3.4384 0.31052-0.50244 0.16374-3.796-0.32617-7.3189-1.1071-7.9614-1.9728-87.46-2.3716-217.81-0.16804-54.914-0.62484-107.69-1.0151-117.28-0.82527-20.278 0.47556-24.869 2.2882-8.0758 2.3415 21.692 3.6947 125.2 3.7347 285.67 0.0157 63.301 7e-3 64.096-0.78689 67.648l-0.69984 3.1332-0.69391-2.5248zm-16.582-30.335c-0.0701-1.5211-0.21517-6.1406-0.32234-10.266-0.10719-4.125-0.48503-16.148-0.83966-26.719-1.6353-48.741-2.2414-77.781-2.5537-122.34-0.14089-20.109-0.5524-46.055-0.91447-57.656-1.1948-38.284-1.8379-62.961-2.2967-88.125-0.48698-26.709-1.0123-49.063-1.9386-82.5-1.0467-37.779-1.137-43.176-1.2787-76.449-0.13319-31.253 0.32391-37.926 2.598-37.926 2.4517 0 2.8505 5.9324 2.9392 43.72 0.0986 42.014 0.64907 75.045 1.4806 88.843 0.28275 4.6919 0.67008 18.023 0.86074 29.624 0.50027 30.44 1.2908 67.521 1.9705 92.435 0.32494 11.909 0.7359 27.097 0.91324 33.75 1.1183 41.953 2.1372 162.17 1.5844 186.94-0.0172 0.77344-0.0905 7.3125-0.16273 14.531-0.113 11.294-1.6556 20.475-2.0398 12.141zm-15.931-45.031c-0.0666-4.082-0.22464-9.1094-0.35126-11.172s-0.51079-12.609-0.85369-23.438c-0.3429-10.828-0.79871-25.172-1.0129-31.875-0.2142-6.7031-0.64306-22.312-0.95303-34.688-0.30996-12.375-1.1266-39.375-1.8148-60s-1.2902-44.323-1.3379-52.663c-0.0968-16.933-0.47013-28.091-2.4412-72.962-1.4656-33.364-2.1609-53.337-2.8554-82.031-0.82735-34.18-1.3852-57.613-1.8861-79.219-0.27491-11.859-0.7363-22.337-1.0253-23.285-0.98132-3.216 0.51338-8.1216 2.4746-8.1216 3.901 0 3.6111-6.3991 5.1392 113.44 0.23341 18.305 0.87549 44.227 1.4268 57.605 0.55135 13.378 0.97066 29.831 0.93181 36.562-0.0673 11.652 0.17044 20.958 1.2946 50.677 1.9308 51.046 1.9663 52.825 1.0726 53.719-0.20894 0.20894-7e-3 1.3629 0.45063 2.5643 0.45678 1.2014 1.0824 21.514 1.3903 45.138 0.30791 23.624 0.72672 50.758 0.93071 60.297 0.62581 29.266 0.67771 65.739 0.0944 66.322-0.30422 0.30421-0.60758-2.7867-0.67414-6.8688zm-21.23 2.0423c-1.1174-2.4525-1.8405-22.679-0.84632-23.673 0.86611-0.86611 0.80801-5.9473-0.0681-5.9488-0.38672-6.6e-4 -0.79485-7.9108-0.90696-17.578-0.27194-23.451-0.57636-29.52-1.5569-31.041-0.51358-0.79648-0.40595-1.5346 0.28615-1.9623 1.2836-0.79331 0.95633-4.2841-0.67982-7.251-0.78013-1.4146-0.82439-2.2425-0.14241-2.664 0.65467-0.4046 0.80419-4.3099 0.44187-11.541-0.69929-13.956-0.9031-16.079-1.7989-18.733-0.43581-1.2914-0.27231-3.2959 0.40155-4.9227 0.82909-2.0016 0.85815-3.0799 0.10738-3.9845-0.72266-0.87076-0.75827-2.8954-0.11952-6.796 1.1216-6.8494 1.1258-7.1994 0.0769-6.5512-0.46406 0.2868-0.84375-0.95275-0.84375-2.7546s0.37969-3.0414 0.84375-2.7546c0.46407 0.28681 0.84375-0.32229 0.84375-1.3535s-0.3708-2.1042-0.824-2.3843c-0.45321-0.28009-0.60928-2.4144-0.34683-4.7428 0.32434-2.8775 0.12615-4.2336-0.61874-4.2336-0.75128 0-1.0619-2.2849-0.98768-7.2656 0.0595-3.9961-0.11558-10.43-0.38912-14.297-1.0134-14.327-1.5484-27.302-2.0486-49.688-0.96229-43.062-2.646-86.447-4.7481-122.34-0.33213-5.6719-0.70637-15.375-0.83166-21.562-0.12527-6.1875-0.48724-20.531-0.80437-31.875-0.31714-11.344-0.80424-37.289-1.0825-57.656s-0.68402-46.312-0.9018-57.656c-0.55749-29.04 0.88453-37.995 4.6624-28.953 1.1672 2.7934 1.5472 8.4724 1.8407 27.503 0.20339 13.19 0.61614 30.936 0.91723 39.435s0.77532 36.125 1.0538 61.39c0.27854 25.266 0.67675 51.844 0.88494 59.062 0.20817 7.2188 0.62412 22.406 0.92433 33.75 0.79751 30.135 1.355 45.965 1.8984 53.906 0.26465 3.8672 0.70938 16.102 0.98828 27.188 0.27892 11.086 0.65812 24.375 0.84268 29.531 0.18454 5.1562 0.58495 16.547 0.88978 25.312 0.30483 8.7656 0.76144 20.156 1.0147 25.312 0.25326 5.1562 0.69261 20.977 0.97634 35.156 0.90172 45.064 2.1412 97.766 2.8151 119.69 0.48034 15.629-0.0808 19.5-2.1641 14.928zm-96.92-72.98c-0.0807-6.3164-0.25564-12.539-0.38875-13.828-0.27163-2.6307-0.92707-21.172-2.2867-64.688-0.50748-16.242-1.3468-39.234-1.865-51.094-1.0443-23.895-1.7467-43.976-2.4266-69.375-0.24846-9.2812-0.85859-22.992-1.3558-30.469s-1.1204-21.398-1.3846-30.938-0.8856-28.734-1.3807-42.656c-0.49507-13.922-1.1352-40.289-1.4225-58.594-0.28731-18.305-0.71092-40.242-0.94136-48.75-0.23043-8.5078-0.67987-25.382-0.99874-37.499-0.31887-12.116-0.7114-22.243-0.87229-22.503-3.8247-6.1885-1.7732-52.764 2.3449-53.235 4.1862-0.47941 4.9438 2.3349 5.2407 19.468 0.1476 8.5183 0.50341 21.605 0.79068 29.082 0.28726 7.4766 0.74053 20.766 1.0073 29.531 0.26674 8.7656 0.68573 19.945 0.93112 24.844 0.24538 4.8984 0.65811 19.242 0.91717 31.875s0.67889 27.398 0.93295 32.812 0.68954 33.258 0.96774 61.875c0.27818 28.617 0.70369 55.195 0.94558 59.062 0.24187 3.8672 0.66042 19.898 0.93009 35.625 0.66549 38.809 1.3349 69.575 1.9176 88.125 0.65597 20.885 1.1489 108.58 0.65474 116.48-0.65314 10.448-2.1002 7.1428-2.2573-5.1562zm56.04-15.27c-0.39059-1.0116-0.89222-6.2689-1.1147-11.683-0.22252-5.4141-1.2594-25.031-2.3043-43.594-1.9371-34.415-3.5606-65.439-3.5568-67.969 0.0171-11.476-3.0209-100.56-3.4533-101.26-0.22527-0.36449-0.85191-18.758-1.3926-40.874-0.54063-22.116-1.1648-45.907-1.3871-52.868-0.22227-6.9609-0.65032-27.844-0.9512-46.406s-0.93761-42.398-1.415-52.969c-2.6669-59.055-2.2263-72.656 2.3534-72.656 4.4888 0 7.5391 59.729 7.876 154.22 0.12209 34.244 2.3977 116.7 4.2951 155.62 0.23876 4.8984 0.67566 18.609 0.97089 30.469 0.29524 11.859 0.7443 22.271 0.99793 23.138 1.8867 6.445 0.97945 131.74-0.91836 126.83zm20.041-14.027c-0.17057-2.0625-0.37444-7.7578-0.45304-12.656s-0.63882-18.398-1.2449-30c-1.792-34.301-2.9552-60.335-3.4766-77.812-0.26923-9.0234-0.8898-25.477-1.3791-36.562s-1.1561-27.117-1.4818-35.625c-0.32571-8.5078-0.72022-18.422-0.87669-22.031-0.15646-3.6094-0.57429-15.633-0.92851-26.719-0.35421-11.086-0.76948-21.236-0.9228-22.557s-0.54225-14.187-0.86428-28.594c-1.4674-65.647-2.1175-88.325-3.3037-115.26-2.0551-46.656-1.4124-56.85 3.474-55.1 4.0208 1.4397 5.9497 27.938 7.2185 99.162 0.31229 17.531 0.7582 35.672 0.99092 40.312 0.78815 15.717 1.2735 31.78 1.9121 63.281 0.35015 17.273 0.76388 31.632 0.9194 31.909 0.36063 0.64072 1.2376 73.01 1.7719 146.22 0.35729 48.957-0.38333 93.784-1.3553 82.031zm-146.38-29.531c-0.13912-3.3516-0.33429-7.9922-0.43374-10.312-0.0995-2.3203-0.63107-10.547-1.1814-18.281-1.1731-16.488-2.7711-46.464-3.3983-63.75-0.89807-24.75-2.3799-56.346-2.792-59.531-0.23351-1.8047-0.67612-12.984-0.9836-24.844-0.30746-11.859-0.74877-22.491-0.98069-23.627-0.23192-1.1352-0.83865-13.37-1.3483-27.188-1.1812-32.026-1.7783-45.967-2.3208-54.186-0.23824-3.6094-0.71171-17.41-1.0522-30.668-0.90685-35.315-0.92177-35.748-2.094-60.738-0.59259-12.633-1.5347-33.305-2.0936-45.938-0.92857-20.989-1.8085-34.853-3.3742-53.163-0.56914-6.6558-0.5402-6.7738 1.938-7.903 5.1744-2.3576 6.5488 0.85576 6.7662 15.819 0.20743 14.278 1.0862 41.353 1.7425 53.684 0.23326 4.3828 0.66092 14.719 0.95037 22.969s0.72113 18.797 0.9593 23.438c2.2318 43.487 2.7721 58.226 3.7283 101.72 0.25423 11.563 1.1329 33.432 2.0152 50.156 0.29922 5.6719 0.68011 13.688 0.84643 17.812s0.52694 12.352 0.80139 18.281c0.94831 20.489 2.306 67.032 2.9263 100.31 0.21622 11.602 0.64615 33.75 0.9554 49.219 0.3603 18.022 0.22353 28.967-0.38073 30.469-0.79752 1.9821-0.98204 1.4035-1.196-3.75zm48.406-39.141c-0.38745-7.0898-0.81541-15.633-0.95101-18.984s-0.49946-12-0.80859-19.219c-0.30912-7.2188-0.79082-24.094-1.0704-37.5-0.27964-13.406-1.093-36.609-1.8076-51.562-0.71451-14.953-1.3816-32.039-1.4824-37.969-0.21283-12.521-0.35283-16.434-1.224-34.219-0.3536-7.2188-0.83049-23.039-1.0597-35.156s-0.64211-27.516-0.91746-34.219c-0.27535-6.7031-0.72009-21.258-0.98828-32.344-0.26821-11.086-0.69583-25.219-0.95027-31.406-1.3894-33.786-2.7301-69.819-3.3928-91.185-0.19385-6.2494 5.0483-9.8586 7.47-5.1432 0.97784 1.904 2.0164 43.283 2.5472 101.48 0.50703 55.599 1.3081 114.27 1.8303 134.06 0.23812 9.0234 0.64977 25.688 0.9148 37.031 0.74438 31.862 1.4913 56.535 1.93 63.75 0.65357 10.751 1.6938 105.47 1.1583 105.47-0.27143 0-0.81052-5.8008-1.198-12.891zm37.702 2.9625c-0.38065-1.0777-0.87985-11.835-1.1093-23.906-1.0715-56.362-1.4662-73.085-1.879-79.603-0.24489-3.8672-0.67304-15.891-0.95147-26.719s-0.71553-23.484-0.97133-28.125c-1.0133-18.384-2.3558-57.528-2.781-81.094-0.2466-13.664-0.85496-39.609-1.3519-57.656-0.49695-18.047-0.88892-33.445-0.87104-34.219 0.0179-0.77344-0.21121-7.1016-0.50906-14.062-2.9573-69.112-2.7708-80.942 1.2418-78.795 2.7099 1.4503 3.6145 5.8804 3.7419 18.326 0.0634 6.1875 0.38572 12.516 0.71641 14.062 0.69813 3.2656 0.81679 6.9665 1.2174 37.969 0.16326 12.633 0.86486 32.039 1.5591 43.125s1.2474 22.898 1.2293 26.25c-0.0424 7.8292 1.6433 70.739 3.0522 113.91 1.3616 41.717-0.47359 175.81-2.334 170.54zm-70.795-4.3687c-0.83678-3.3966-1.5207-15.693-1.2098-21.75 0.32008-6.2363 1.8538 1.9547 2.4048 12.844 0.68548 13.545 0.42534 15.483-1.195 8.9062zm91.31-22.969c-0.72528-5.7437-1.5038-18.501-1.9595-32.109-0.19856-5.9297-0.59477-14.789-0.88046-19.688-0.2857-4.8984-0.95027-16.711-1.4768-26.25-0.52656-9.5391-1.3652-23.672-1.8637-31.406-1.4662-22.749-2.7223-49.294-3.283-69.375-0.28792-10.312-0.72848-21.914-0.97903-25.781-0.25054-3.8672-0.86102-26.648-1.3566-50.625-0.4956-23.977-1.3641-63.761-1.93-88.411-1.1062-48.182-0.99447-49.652 3.5524-46.764 1.3191 0.83789 4.0692 14.224 4.022 19.577-0.0173 1.9617 0.13588 9.0851 0.34038 15.83 1.2771 42.119 1.6324 51.833 2.0034 54.768 0.44636 3.5314 1.0244 26.733 1.9269 77.339 0.31259 17.529 0.69644 32.083 0.853 32.344 0.15655 0.26054 0.54546 10.177 0.86424 22.036 0.54791 20.384 0.97828 31.993 2.0332 54.844 2.1411 46.38 0.70228 134.01-1.8664 113.67zm-92.81-4.6875c-0.47529-2.2998-1.4863-26.83-2.869-69.609-0.25832-7.9922-0.69166-18.117-0.96299-22.5-0.61459-9.9277-2.1748-60.223-2.8356-91.406-0.27314-12.891-0.67614-27.445-0.89555-32.344s-0.67585-23.25-1.0143-40.781-0.74044-32.958-0.8933-34.281c-0.15287-1.3234-0.54342-11.448-0.86791-22.5s-0.77926-22.836-1.0106-26.188c-3.3505-48.539-3.8565-67.333-1.8338-68.109 4.4062-1.6908 5.6503 5.5347 6.5615 38.109 0.13701 4.8984 0.49797 12.07 0.80212 15.938s0.77614 15.68 1.0489 26.25c0.27271 10.57 0.89748 28.078 1.3884 38.906 1.5172 33.467 1.8408 46.257 2.3842 94.219 0.2892 25.523 0.71517 51.891 0.9466 58.594 0.23143 6.7031 0.64653 20.203 0.92244 30 0.2759 9.7969 0.69323 24.141 0.9274 31.875 0.39258 12.966 0.55052 69.451 0.20775 74.297-0.2062 2.9152-1.3627 2.645-2.0062-0.46875zm16.916-15.934c-0.27997-1.9358-0.75471-9.004-1.055-15.707-0.30026-6.7031-0.94458-18.727-1.4318-26.719-0.48725-7.9922-1.323-22.336-1.8573-31.875-0.53425-9.5391-1.1639-20.086-1.3991-23.438-0.65692-9.3588-2.2398-56.657-2.8238-84.375-0.28785-13.664-0.69542-27.586-0.9057-30.938s-0.63202-14.953-0.93718-25.781c-0.30517-10.828-0.75311-21.375-0.9954-23.438-0.4999-4.2551-2.0022-35.7-2.7769-58.125-0.28502-8.25-0.97836-19.43-1.5408-24.844-1.5631-15.047-0.77676-45.439 1.2274-47.44 5.4233-5.4166 6.2845 0.90613 6.9093 50.722 0.52371 41.76 0.74827 49.814 1.7774 63.75 0.26655 3.6094 0.67999 9.3047 0.91876 12.656 0.23876 3.3516 0.67312 14.109 0.96525 23.906 0.29212 9.7969 0.73434 22.875 0.9827 29.062 0.24837 6.1875 0.67551 19.477 0.94921 29.531 0.27371 10.055 0.87743 31.781 1.3416 48.281 0.46419 16.5 0.82765 30.633 0.80769 31.406-0.02 0.77344 0.22421 11.742 0.54258 24.375 1.7567 69.703 1.5376 94.453-0.69908 78.988zm-57.825-79.457c-0.05513-1.0312-0.27236-2.7188-0.48273-3.75s-0.44832-3.3516-0.52876-5.1562c-0.08045-1.8047-0.49134-7.5-0.9131-12.656-0.42176-5.1562-1.0019-15.914-1.2893-23.906-0.84886-23.611-2.3327-58.996-2.7914-66.562-0.2344-3.8672-0.6701-13.781-0.96823-22.031s-0.73384-19.219-0.96825-24.375-0.6535-14.648-0.93132-21.094-0.68882-12.984-0.91333-14.531c-0.22452-1.5469-0.6443-9.5625-0.93284-17.812-0.87588-25.043-1.4553-39.912-1.8813-48.281-0.22312-4.3828-0.6403-14.086-0.92707-21.562s-0.77581-17.496-1.0868-22.266c-0.65195-9.9997 0.4687-11.259 4.5881-5.1562l2.3731 3.5156 0.98709 38.438c0.5429 21.141 0.95043 39.281 0.90562 40.312-0.04481 1.0312 0.42168 8.8359 1.0367 17.344s1.295 20.953 1.5112 27.656c0.2162 6.7031 0.8321 23.367 1.3687 37.031s1.1751 34.547 1.419 46.406 0.60445 26.203 0.80122 31.875c1.4819 42.716 1.7391 64.965 0.77018 66.635-1.023 1.7626-1.0485 1.761-1.1465-0.0724zm-13.412-26.719c-0.35345-1.8047-0.80323-6.0234-0.99951-9.375s-0.60183-8.4141-0.90123-11.25-0.7829-10.852-1.0744-17.812c-0.63606-15.187-1.1125-24.795-1.7896-36.094-0.27811-4.6406-0.72894-14.344-1.0018-21.562s-0.68722-15.234-0.92071-17.812c-0.23349-2.5781-0.67836-11.016-0.9886-18.75-0.31024-7.7344-0.75451-16.594-0.98726-19.688-0.23276-3.0938-1.2555-16.594-2.2728-30-6.389-84.197-6.7825-94.219-3.6996-94.219 4.0399 0 5.0215 5.0027 6.0706 30.938 0.219 5.4141 0.62824 13.008 0.90942 16.875 0.28118 3.8672 0.7015 9.9844 0.93402 13.594 0.23253 3.6094 0.60606 7.8281 0.83007 9.375s0.70402 8.2969 1.0667 15c0.36267 6.7031 0.7845 12.398 0.9374 12.656 0.1529 0.25781 0.53653 7.6406 0.85251 16.406 0.31598 8.7656 0.9886 23.32 1.4947 32.344 1.792 31.95 3.7516 124.76 2.7416 129.84l-0.55871 2.8125-0.64264-3.2812zm279.19-183.52c0.43449-36.74 0.92741-73.069 1.8921-139.45 0.51852-35.681 1.1589-39.492 6.5051-38.713 2.9457 0.42916 3.4516 5.0017 2.779 25.119-0.33614 10.055-0.56911 21.656-0.51772 25.781 0.0514 4.125-0.33144 16.359-0.85072 27.188-0.51928 10.828-1.1444 25.594-1.3891 32.812-0.39275 11.585-1.8779 24.251-2.171 18.516-0.52699-10.311-1.8489 2.9648-2.4738 24.844-0.42338 14.824-0.87941 30.328-1.0134 34.453s-0.3395 11.93-0.4567 17.344c-0.23019 10.634-0.59647 13.125-1.9295 13.125-0.51518 0-0.66512-16.429-0.37435-41.016zm-27.037-92.331c-0.27661-2.714-0.72421-12.528-0.99465-21.81-0.27045-9.2812-0.774-26.244-1.119-37.696-0.62001-20.58-0.29263-23.71 2.4796-23.71 2.4886 0 4.0519 79.4 1.6365 83.119-0.3884 0.598-0.46511 1.7155-0.17047 2.4833s0.11614 1.6553-0.39666 1.9723c-0.55285 0.34167-1.1371-1.4324-1.4353-4.3583zm15.338 1.1123c-0.53333-82.405-0.50462-84.622 1.1214-86.606 3.4085-4.1586 4.8241 3.1723 4.1478 21.48-1.2329 33.372-1.5208 39.514-2.0442 43.611-0.29642 2.3203-0.65535 8.5673-0.79763 13.882-0.26174 9.7776-2.3706 16.409-2.4274 7.6333zm-35.107-28.781c-1.0732-2.7201-1.5985-49.292-0.57343-50.832 2.6958-4.0493 3.655 11.226 2.9858 47.551-0.0904 4.907-1.1841 6.3946-2.4123 3.2812zm-20.496-30.938c-1.4174-2.3249-1.6484-13.054-0.30513-14.169 2.1405-1.7765 3.7675 1.8561 3.0333 6.7726-0.31872 2.1343-0.61413 4.8297-0.65649 5.9899-0.075 2.0532-1.2082 2.8225-2.0717 1.4062zm342.95 12.85c-1.0041-1.6247 1.483-3.7089 4.4259-3.7089 3.2526 0 1.9408-2.0374-2.1005-3.2622-1.265-0.3834-5.2186-1.962-8.7857-3.508-12.82-5.556-20.233-6.9417-20.233-3.7818 0 0.83868-0.94378 2.5295-2.0973 3.7573l-2.0973 2.2325 2.3317 1.7756c1.2824 0.97656 5.9176 2.6686 10.3 3.7601s9.2344 2.3305 10.781 2.7533c4.1727 1.1405 8.1846 1.1309 7.4746-0.0179zm-522.76-5.0828c2.9161-0.75563 8.561-1.5878 12.544-1.8493 4.7417-0.31128 8.5844-1.1602 11.13-2.4587 3.2522-1.6591 4.9016-1.8916 10.091-1.4222 10.669 0.965 13.48 0.79928 21.474-1.2662 4.274-1.1042 8.1217-1.7908 8.5505-1.5258 0.77698 0.4802 4.9742-0.53437 17.429-4.2129 7.8408-2.3159 17.847-4.6823 21.094-4.9886 3.5885-0.33857 7.8265-1.7198 9.0592-2.9524 0.60995-0.60995 3.3538-1.3749 6.0974-1.6998 2.7436-0.32494 5.1315-1.0204 5.3065-1.5454 0.175-0.52503 2.076-0.96107 4.2244-0.96898 2.1484-8e-3 7.2292-0.85167 11.291-1.875 4.0614-1.0233 9.0462-1.8606 11.077-1.8606 2.0311 0 4.6144-0.50157 5.7407-1.1146 1.1262-0.61303 3.6549-1.2032 5.6192-1.3115s4.3189-0.87328 5.2323-1.6999c0.91346-0.82667 1.9436-1.2202 2.2893-0.87457 0.34565 0.34565 1.577 0.17892 2.7364-0.37051 1.1594-0.54944 4.6392-1.5121 7.733-2.1393s6.0469-1.3969 6.5625-1.7104c0.51562-0.31356 1.3594-0.62684 1.875-0.6962 0.51562-0.0694 3.2041-0.41902 5.9745-0.77705 2.7703-0.35802 7.2-1.4731 9.8438-2.4779 2.6437-1.0048 5.756-1.8272 6.9161-1.8274 1.1602-2.5e-4 2.1094-0.47154 2.1094-1.0473 0-0.60546-0.83907-0.82742-1.99-0.52644-2.3698 0.61971-16.76-6.5859-16.76-8.3922 0-1.0724 5.7463-1.0515 8.9062 0.0324 1.0618 0.36421 0.76777-37.021-0.29879-37.993-1.4633-1.3336-5.7961-1.7815-5.8782-0.60765-0.0457 0.65436-0.19005 8.7835-0.32061 18.065-0.13055 9.2812-0.30404 17.16-0.38552 17.508-0.0815 0.34793-2.363 0.50893-5.07 0.35777-2.707-0.15115-5.3438 0.0385-5.8594 0.42149-0.51563 0.38297-2.2031 0.9343-3.75 1.2252-1.5469 0.29087-4.7109 0.99351-7.0312 1.5614-2.3203 0.56793-5.9407 1.1738-8.0453 1.3465-2.1046 0.17265-4.7136 0.78862-5.7977 1.3688-1.0842 0.58023-3.5477 1.055-5.4746 1.055s-4.2447 0.67084-5.1507 1.4908-3.6814 1.6194-6.1676 1.7765c-2.4862 0.15718-6.3791 0.96741-8.6509 1.8005-2.2718 0.8331-4.347 1.2984-4.6114 1.0339-0.26444-0.26445-1.1957 0.1662-2.0695 0.95698s-3.0174 1.578-4.7636 1.7494c-3.7821 0.37124-30.64 7.3772-35.987 9.3874-2.0625 0.77535-5.1346 1.4282-6.827 1.4509-1.6923 0.0226-4.6455 0.71146-6.5625 1.5307-1.917 0.81928-7.4933 2.5144-12.392 3.7671-10.254 2.622-14.697 3.9172-17.344 5.0553-3.1674 1.3621-20.47 6.7131-23.205 7.1766-1.419 0.24043-3.7393 1.0419-5.1562 1.781s-3.5422 1.3465-4.7229 1.3496c-1.1807 3e-3 -3.8006 0.84953-5.822 1.8808-2.0214 1.0312-4.3468 1.875-5.1675 1.875-1.1688 0-6.9316 2.6472-9.8053 4.5041-2.8384 1.8341 3.9573 2.2919 10.16 0.6845zm472.79-11.909c-0.18354-2.1302 0.45277-4.8794 1.6912-7.3069 1.3289-2.6048 1.7538-4.5717 1.2851-5.9479-0.3852-1.1308-0.72242-3.7436-0.74938-5.8061-0.0445-3.4056-0.32883-3.8324-3.0959-4.647-1.6758-0.49334-3.0469-1.2706-3.0469-1.7271s-0.84375-1.9028-1.875-3.2138c-1.0312-1.311-1.875-3.1136-1.875-4.0058 0-2.3374-3.592-6.5625-5.5792-6.5625-0.93119 0-3.6754-2.3203-6.0982-5.1562-3.0235-3.539-5.0965-5.1562-6.6094-5.1562-2.5108 0-4.5679-1.7786-6.5982-5.7046-0.77205-1.493-3.1636-3.6123-5.3146-4.7097s-5.4118-3.4182-7.2463-5.1573c-1.8345-1.7392-3.9033-3.1658-4.5973-3.1702-6.3595-0.04098-18.894-7.2712-18.894-10.898 0-0.89024-1.1867-1.2972-3.783-1.2972-3.7345 0-6.4757-1.2602-11.384-5.2335-1.3811-1.118-4.1233-2.3316-6.0938-2.697-1.9704-0.3654-4.8483-1.419-6.3951-2.3414-1.6134-0.962-5.7502-1.9342-9.7028-2.2803-4.8339-0.42321-8.0761-1.2982-10.864-2.9318-2.2062-1.2929-5.4493-2.3285-7.2921-2.3285-1.8253 0-4.9523-0.70177-6.9489-1.5595-5.6682-2.4351-16.772-1.7997-20.291 1.161-1.486 1.2504-3.5334 2.2735-4.5496 2.2735s-3.9562 2.1085-6.5332 4.6855-5.9319 5.33-7.4554 6.1178-2.7987 1.9489-2.8339 2.5802 0.0531 4.7337 0.19609 9.1166c0.14306 4.3828 0.30939 11.133 0.36964 15 0.14524 9.3223 0.10085 9.179 2.6909 8.6839 4.1726-0.79763 21.804 1.6598 34.433 4.7992 7.4164 1.8436 15.018 3.135 18.624 3.164 4.4022 0.0355 8.8917 0.98479 16.173 3.4198 5.5437 1.8538 11.32 3.3706 12.835 3.3706 1.5157 0 3.0166 0.42187 3.3353 0.9375 0.31867 0.51563 1.6657 0.9375 2.9934 0.9375 2.2171 0 5.51 0.70726 12.944 2.7802 4.6064 1.2845 38.814 12.107 46.406 14.682 3.8672 1.3115 7.8556 2.3686 8.863 2.3489 1.0075-0.0196 2.2731 0.31149 2.8125 0.73579 0.53939 0.42429 2.5627 1.281 4.4963 1.9038 4.5546 1.467 4.9242 4.234 0.46875 3.5084-9.2709-1.5097-18.551-3.7102-22.266-5.2796-6.2306-2.6322-7.8596-3.179-8.974-3.0119-0.55286 0.0829-3.081-0.23712-5.6182-0.71111-5.3631-1.002-5.9554-0.49595-5.1647 4.4121 0.50794 3.1527 0.95053 3.5914 4.7678 4.726 2.3143 0.68789 8.2156 2.4819 13.114 3.9867s9.5391 2.7513 10.312 2.7701c0.77344 0.0188 4.7812 1.0548 8.9062 2.3023 9.5974 2.9025 10.384 2.7799 10.01-1.5614zm15.833 2.9374c1.2479-0.66786 1.8134-1.9662 1.8134-4.1634 0-3.6487-1.3219-4.9297-3.3501-3.2465-1.0675 0.88597-1.9443 0.90482-3.753 0.0807-3.3845-1.5421-3.8704-1.378-4.4192 1.4928-0.66468 3.477 0.68639 5.6656 3.7876 6.1353 1.4182 0.21482 2.9226 0.45379 3.3432 0.53105 0.42061 0.0772 1.5808-0.29625 2.5781-0.83001zm0.0609-16.696c1.0565-2.7788-1.1525-6.7089-3.7708-6.7089-1.5252 0-1.7169-0.76539-1.619-6.463 0.15587-9.073-4.4488-13.789-8.2146-8.4123-0.94369 1.3473-2.0316 1.8347-3.3344 1.494-2.3137-0.60504-2.3408-0.43764-0.50344 3.1153 1.677 3.243 6.3066 3.9369 7.5071 1.1253 1.09-2.5528 2.3803 4.0897 1.7208 8.8589-0.47193 3.4127-0.21905 4.2386 1.8986 6.2012 1.3437 1.2453 2.4431 3.0058 2.4431 3.9121 0 2.2373 2.6458 0.10371 3.8726-3.1228zm-92.929-5.0682c3e-3 -0.64453 0.62084-2.3511 1.3726-3.7923 1.0346-1.9835 1.0902-2.7122 0.2286-2.9979-3.2547-1.0792-32.659-7.0546-34.654-7.0423-0.38671 3e-3 -0.70312 1.6407-0.70312 3.6406 0 4.2787 0.88733 4.7756 12.656 7.0876 4.125 0.81035 9.3984 2.0758 11.719 2.812 5.3375 1.6937 9.3732 1.8194 9.3808 0.29224zm-149.63-26.25c0.32858-4.7695 0.67878-12.593 0.77823-17.386 0.12947-6.2406 0.41814-8.1035 1.0169-6.5625 0.45985 1.1835 0.79888 8.0095 0.75339 15.169-0.11062 17.407-0.0964 17.452 5.554 17.452 3.3458 0 17.777-2.0237 26.705-3.745 0.0143-3e-3 -0.0149-7.6104-0.0649-16.906-0.0919-17.107 1.2658-24.36 2.8285-15.11 0.82285 4.8705 0.26956 30.136-0.65997 30.136-0.39781 0-0.72329 0.45539-0.72329 1.012 0 1.2175 4.4304 0.44849 9.8879-1.7162l3.7942-1.505 0.22863-17.66c0.26008-20.09 0.40239-19.742-7.2079-17.634-3.6228 1.0034-10.916 1.4097-34.359 1.9142-1.0312 0.0222-4.5835 0.0081-7.8938-0.03144-3.3103-0.03949-7.7708 0.19093-9.9122 0.51205l-3.8934 0.58385-0.0651 7.1841c-0.0358 3.9512-0.36933 12.247-0.74118 18.434-0.37184 6.1875-0.64476 11.672-0.60649 12.188 0.0798 1.0755 4.4749 2.0408 10.11 2.2203l3.8729 0.12341 0.59742-8.6719zm-21.793 5.1562c0.079-0.90235 0.24524-8.3906 0.36945-16.641s0.37599-16.266 0.5595-17.812c0.31851-2.6847 0.15935-2.8253-3.5037-3.0936l-3.8373-0.2811-0.17517 7.3123c-0.73654 30.747-0.59532 31.69 4.803 32.047 0.93151 0.0618 1.7027-0.60037 1.7843-1.5319zm243.78-4.4624c1.1018-2.4181-1.7404-7.0312-4.3226-7.016-2.4131 0.0141-4.3585 5.5382-2.6214 7.4436 2.3714 2.6011 5.6562 2.3989 6.944-0.4276zm-10.487-8.8804c0-5.3575-6.2787-8.8274-8.5977-4.7514-1.8238 3.2057-0.39555 5.344 2.98 4.4613 1.2596-0.32939 2.2173 0.11256 2.8645 1.3219 1.1307 2.1128 2.7532 1.5048 2.7532-1.0317zm-18.395-13.954c1.5038-1.6617 1.4151-1.8977-1.7623-4.6875-4.0948-3.5953-5.8636-3.7099-6.686-0.43329-1.1661 4.646 5.32 8.5775 8.4483 5.1208zm-18.87-9.2658c0.62299-1.418 1.5192-2.852 1.9915-3.1866 2.2996-1.6294-2.3784-5.9374-7.5762-6.977l-2.9076-0.58151 0.32591 4.7911c0.37696 5.5416 0.82343 6.4912 3.5738 7.6009 3.0675 1.2377 3.3735 1.1279 4.5926-1.6469zm-18.538-10.523c1.5812-1.7472 1.5861-1.9869 0.0866-4.2754-2.2979-3.507-6.5016-2.9476-6.9422 0.92385-0.52621 4.6241 3.793 6.7357 6.8556 3.3515zm-201.78-0.80341c0.2693-1.0298-0.45768-2.5895-1.8167-3.8975-2.3861-2.2965-1.6964-3.7155 1.8208-3.7462 0.90234-0.0079 1.6464-0.5417 1.6534-1.1862 7e-3 -0.64453 0.28344-2.1833 0.61422-3.4194 0.54763-2.0465 0.38141-2.1923-1.8586-1.6301-3.4028 0.85405-11.01-1.0029-13.433-3.2789l-2.0091-1.8874-2.04 2.1782c-2.5348 2.7066-2.0023 6.5617 1.3726 9.9366 1.2876 1.2876 2.3411 2.8134 2.3411 3.3906 0 1.4529 6.672 4.2497 12.313 5.1613 0.32658 0.05278 0.79583-0.67664 1.0428-1.6209zm184.52-6.7536c1.0005-0.53545 1.8134-1.9549 1.8134-3.1665 0-4.9228-9.0573-6.7079-10.712-2.1111-1.1186 3.108-0.18739 3.9522 6.7889 6.1546 0.1628 0.05139 1.112-0.34327 2.1094-0.87704zm-17.4-7.5764c-0.1809-7.2103-8.1649-9.0783-8.529-1.9955-0.2309 4.4923 1.042 5.7794 5.7624 5.8264 2.7493 0.02737 2.8596-0.12541 2.7666-3.8309zm-49.002-1.5312c1.0742-4.8995-1.4549-7.1783-7.4878-6.7466-1.3243 0.09478-0.19291 6.0421 1.3727 7.2153 2.2921 1.7176 5.693 1.4569 6.1152-0.46875zm30.156 0.84957c1.3691-2.2153-0.65138-7.6464-2.8446-7.6464-1.2616 0-2.2211 0.55792-2.2211 1.2915 0 0.7103-0.63281 1.8166-1.4062 2.4585-1.9013 1.5779-1.7763 2.1846 0.70312 3.4126 2.6416 1.3083 5.1304 1.517 5.7689 0.48386zm-14.705-11.72c-0.59761-1.7928-6.0664-2.9112-7.6814-1.5708-1.2452 1.0335-1.1031 1.559 1.1532 4.2639l2.5735 3.0851 2.1531-2.3617c1.1842-1.299 1.9949-2.8364 1.8016-3.4165zm-107.59 7.4854c-0.2366-0.22946-5.7036-0.70152-12.149-1.049-8.6524-0.46649-11.915-0.98094-12.468-1.9661-0.41234-0.73386-1.5274-1.3343-2.4778-1.3343-5.2861 0-0.81761-15.034 7.3556-24.748 4.7208-5.6105 30.045-11.931 32.418-8.0906 1.0032 1.6233-0.91351 2.6039-6.5017 3.3265-10.752 1.3903-14.542 4.7062-6.373 5.5759 12.772 1.3598 14.519 3.5175 3.5156 4.341-5.3489 0.40031-9.0461 1.2939-12.891 3.1156-8.2627 3.9152-7.1808 4.7606 6.0927 4.7606 10.805 0 19.196 3.5094 9.1416 3.8231-6.7529 0.21068-14.923 1.6517-21.536 3.7985-2.7656 0.89779 1.2062 2.1929 6.7706 2.2078 4.2825 0.0114 5.8122 0.43591 7.4414 2.0651 1.1504 1.1504 2.1992 1.6057 2.3887 1.037 0.54063-1.6219 4.1244-0.21975 3.7995 1.4865-0.26787 1.4066-3.5465 2.6015-4.5275 1.65zm58.027-7.865c-7.463-7.9215-14.619-14.297-16.046-14.297-1.751 0-2.2395-2.325-0.68973-3.2828 1.6572-1.0242-0.79687-4.1204-4.0085-5.0574-2.8426-0.82929-2.7423-0.87849 1.6623-0.81507 9.3714 0.13494 19.483 5.0186 21.953 10.603 2.5729 5.8165 3.0437 15.427 0.75572 15.427-0.65861 0-2.2905-1.1602-3.6264-2.5781z"/>
</svg>
